<svg width="286" height="148" viewBox="0 0 286 148" fill="none" xmlns="http://www.w3.org/2000/svg">
<path d="M171.821 38.4072L172.681 39.4355L174.013 39.29L238.705 32.1885L216.002 68.4951L214.367 71.1104L217.264 72.1689L275.882 93.585L204.227 104.152L201.979 104.483L202.094 106.752L203.933 143.077L144.072 114.65L143 114.142L141.928 114.65L81.5977 143.3L78.8096 103.204L78.665 101.131L76.6006 100.895L9.77637 93.2256L66.459 69.4189L69.8506 67.9951L67.2773 65.3652L35.3594 32.7559L98.667 42.5225L99.8486 42.7051L100.731 41.9004L142.754 3.60547L171.821 38.4072Z" fill="#D3A7C6" stroke="#564D53" stroke-width="5"/>
<mask id="path-2-outside-1_8_100" maskUnits="userSpaceOnUse" x="117" y="57" width="67" height="34" fill="black">
<rect fill="white" x="117" y="57" width="67" height="34"/>
<path d="M134.746 61.6172C136.246 61.5938 137.477 61.8633 138.438 62.4258C139.422 62.9883 140.219 63.6562 140.828 64.4297C141.438 65.2031 141.906 65.9883 142.234 66.7852C142.562 67.5586 142.82 68.168 143.008 68.6133C143.055 68.7305 143.148 68.8828 143.289 69.0703C143.406 69.2344 143.57 69.4336 143.781 69.668C144.016 69.8789 144.309 70.125 144.66 70.4062C143.934 70.4297 143.289 70.4531 142.727 70.4766C142.164 70.4766 141.684 70.4883 141.285 70.5117C140.84 70.5352 140.441 70.5586 140.09 70.582C139.738 70.6055 139.305 70.6406 138.789 70.6875C138.32 70.7344 137.746 70.7812 137.066 70.8281C136.387 70.875 135.555 70.9453 134.57 71.0391C135.156 70.3359 135.613 69.7148 135.941 69.1758C136.293 68.6133 136.551 68.1211 136.715 67.6992C136.902 67.2539 137.008 66.8672 137.031 66.5391C137.078 66.2109 137.066 65.9297 136.996 65.6953C136.855 65.1562 136.492 64.7695 135.906 64.5352C134.219 64.0664 132.742 64.4414 131.477 65.6602C130.234 66.8555 129.344 68.8242 128.805 71.5664C128.547 72.9258 128.301 74.3438 128.066 75.8203C127.855 77.2734 127.773 78.6094 127.82 79.8281C127.867 81.0234 128.102 81.9961 128.523 82.7461C128.945 83.4961 129.672 83.8477 130.703 83.8008C131.711 83.7539 132.566 83.5898 133.27 83.3086C133.973 83.0039 134.535 82.6523 134.957 82.2539C135.379 81.832 135.672 81.3867 135.836 80.918C136.023 80.4258 136.094 79.9688 136.047 79.5469C135.953 79.2188 135.707 78.8672 135.309 78.4922C134.957 78.1641 134.43 77.8008 133.727 77.4023C133.023 76.9805 132.016 76.5469 130.703 76.1016C131.945 76.0312 132.965 75.9844 133.762 75.9609C134.582 75.9141 135.227 75.8672 135.695 75.8203C136.258 75.7734 136.691 75.7383 136.996 75.7148C137.277 75.6914 137.688 75.668 138.227 75.6445C138.695 75.6211 139.293 75.6094 140.02 75.6094C140.77 75.6094 141.707 75.5977 142.832 75.5742C142.41 75.9961 142.082 76.3828 141.848 76.7344C141.73 76.9219 141.625 77.0859 141.531 77.2266C141.438 77.4609 141.402 77.9414 141.426 78.668C141.426 79.2773 141.473 80.1797 141.566 81.375C141.66 82.5469 141.836 84.1523 142.094 86.1914L137.418 86.8242L137.629 82.0781C137.09 83.3672 136.41 84.3281 135.59 84.9609C134.793 85.5938 134.031 86.0391 133.305 86.2969C132.438 86.6016 131.535 86.7422 130.598 86.7188C129.379 86.6016 128.16 86.3203 126.941 85.875C125.723 85.4297 124.645 84.75 123.707 83.8359C122.77 82.8984 122.043 81.6914 121.527 80.2148C121.035 78.7383 120.883 76.9102 121.07 74.7305C121.281 72.5508 121.797 70.6523 122.617 69.0352C123.461 67.3945 124.504 66.0352 125.746 64.957C126.988 63.8789 128.383 63.0703 129.93 62.5312C131.5 61.9688 133.105 61.6641 134.746 61.6172ZM156.227 60.4922C157.492 60.5391 158.77 60.7734 160.059 61.1953C161.371 61.5938 162.578 62.25 163.68 63.1641C164.781 64.0547 165.719 65.2148 166.492 66.6445C167.266 68.0508 167.746 69.7734 167.934 71.8125C168.098 73.4766 167.887 75.1289 167.301 76.7695C166.738 78.3867 165.953 79.875 164.945 81.2344C163.938 82.5938 162.777 83.7539 161.465 84.7148C160.152 85.6523 158.84 86.2734 157.527 86.5781C156.73 86.7656 155.852 86.7891 154.891 86.6484C153.953 86.4844 152.992 86.1914 152.008 85.7695C151.047 85.3242 150.098 84.7617 149.16 84.082C148.246 83.4023 147.414 82.6289 146.664 81.7617C145.914 80.8711 145.281 79.9102 144.766 78.8789C144.273 77.8477 143.969 76.7695 143.852 75.6445C143.734 74.707 143.723 73.6758 143.816 72.5508C143.934 71.4023 144.156 70.2656 144.484 69.1406C144.836 67.9922 145.316 66.8906 145.926 65.8359C146.559 64.7578 147.355 63.8203 148.316 63.0234C149.277 62.2031 150.402 61.5703 151.691 61.125C153.004 60.6562 154.516 60.4453 156.227 60.4922ZM149.934 74.7305C149.605 77.2383 149.84 79.2539 150.637 80.7773C151.457 82.3008 152.688 83.2266 154.328 83.5547C155.125 83.7188 155.887 83.5547 156.613 83.0625C157.363 82.5469 158.043 81.8086 158.652 80.8477C159.262 79.8867 159.789 78.7617 160.234 77.4727C160.68 76.1836 161.008 74.8359 161.219 73.4297C161.43 72.0234 161.441 70.7578 161.254 69.6328C161.09 68.4844 160.797 67.5117 160.375 66.7148C159.953 65.8945 159.438 65.2617 158.828 64.8164C158.242 64.3711 157.633 64.125 157 64.0781C155.898 64.0078 154.938 64.3008 154.117 64.957C153.297 65.5898 152.605 66.4219 152.043 67.4531C151.48 68.4844 151.023 69.6445 150.672 70.9336C150.344 72.2227 150.098 73.4883 149.934 74.7305ZM171.344 61.6523C171.789 61.7695 172.211 61.8633 172.609 61.9336C173.008 61.9805 173.359 62.0273 173.664 62.0742C174.016 62.1211 174.344 62.1562 174.648 62.1797C174.977 62.2031 175.363 62.2266 175.809 62.25C176.207 62.2734 176.688 62.2852 177.25 62.2852C177.812 62.2852 178.48 62.2852 179.254 62.2852C178.574 63.9023 178.023 65.2734 177.602 66.3984C177.18 67.5 176.852 68.4141 176.617 69.1406C176.359 69.9844 176.172 70.6758 176.055 71.2148C175.961 71.7539 175.844 72.4102 175.703 73.1836C175.586 73.8633 175.422 74.6953 175.211 75.6797C175 76.6641 174.766 77.8359 174.508 79.1953L171.414 79.0547C171.602 77.8125 171.73 76.7578 171.801 75.8906C171.871 75 171.93 74.2617 171.977 73.6758C172.023 72.9961 172.047 72.4336 172.047 71.9883C172.047 71.5195 172.012 70.8164 171.941 69.8789C171.895 69.1055 171.824 68.0625 171.73 66.75C171.637 65.4141 171.508 63.7148 171.344 61.6523ZM175.211 81.8672C175.375 82.125 175.469 82.418 175.492 82.7461C175.539 83.0508 175.516 83.3672 175.422 83.6953C175.352 84 175.199 84.293 174.965 84.5742C174.754 84.8555 174.461 85.0781 174.086 85.2422C173.336 85.5938 172.668 85.6875 172.082 85.5234C171.496 85.3359 171.062 85.0312 170.781 84.6094C170.617 84.375 170.523 84.1172 170.5 83.8359C170.5 83.5312 170.559 83.2383 170.676 82.957C170.793 82.6523 170.98 82.3711 171.238 82.1133C171.496 81.8555 171.824 81.6445 172.223 81.4805C172.996 81.1523 173.629 81.0352 174.121 81.1289C174.637 81.2227 175 81.4688 175.211 81.8672Z"/>
</mask>
<path d="M134.746 61.6172C136.246 61.5938 137.477 61.8633 138.438 62.4258C139.422 62.9883 140.219 63.6562 140.828 64.4297C141.438 65.2031 141.906 65.9883 142.234 66.7852C142.562 67.5586 142.82 68.168 143.008 68.6133C143.055 68.7305 143.148 68.8828 143.289 69.0703C143.406 69.2344 143.57 69.4336 143.781 69.668C144.016 69.8789 144.309 70.125 144.66 70.4062C143.934 70.4297 143.289 70.4531 142.727 70.4766C142.164 70.4766 141.684 70.4883 141.285 70.5117C140.84 70.5352 140.441 70.5586 140.09 70.582C139.738 70.6055 139.305 70.6406 138.789 70.6875C138.32 70.7344 137.746 70.7812 137.066 70.8281C136.387 70.875 135.555 70.9453 134.57 71.0391C135.156 70.3359 135.613 69.7148 135.941 69.1758C136.293 68.6133 136.551 68.1211 136.715 67.6992C136.902 67.2539 137.008 66.8672 137.031 66.5391C137.078 66.2109 137.066 65.9297 136.996 65.6953C136.855 65.1562 136.492 64.7695 135.906 64.5352C134.219 64.0664 132.742 64.4414 131.477 65.6602C130.234 66.8555 129.344 68.8242 128.805 71.5664C128.547 72.9258 128.301 74.3438 128.066 75.8203C127.855 77.2734 127.773 78.6094 127.82 79.8281C127.867 81.0234 128.102 81.9961 128.523 82.7461C128.945 83.4961 129.672 83.8477 130.703 83.8008C131.711 83.7539 132.566 83.5898 133.27 83.3086C133.973 83.0039 134.535 82.6523 134.957 82.2539C135.379 81.832 135.672 81.3867 135.836 80.918C136.023 80.4258 136.094 79.9688 136.047 79.5469C135.953 79.2188 135.707 78.8672 135.309 78.4922C134.957 78.1641 134.43 77.8008 133.727 77.4023C133.023 76.9805 132.016 76.5469 130.703 76.1016C131.945 76.0312 132.965 75.9844 133.762 75.9609C134.582 75.9141 135.227 75.8672 135.695 75.8203C136.258 75.7734 136.691 75.7383 136.996 75.7148C137.277 75.6914 137.688 75.668 138.227 75.6445C138.695 75.6211 139.293 75.6094 140.02 75.6094C140.77 75.6094 141.707 75.5977 142.832 75.5742C142.41 75.9961 142.082 76.3828 141.848 76.7344C141.73 76.9219 141.625 77.0859 141.531 77.2266C141.438 77.4609 141.402 77.9414 141.426 78.668C141.426 79.2773 141.473 80.1797 141.566 81.375C141.66 82.5469 141.836 84.1523 142.094 86.1914L137.418 86.8242L137.629 82.0781C137.09 83.3672 136.41 84.3281 135.59 84.9609C134.793 85.5938 134.031 86.0391 133.305 86.2969C132.438 86.6016 131.535 86.7422 130.598 86.7188C129.379 86.6016 128.16 86.3203 126.941 85.875C125.723 85.4297 124.645 84.75 123.707 83.8359C122.77 82.8984 122.043 81.6914 121.527 80.2148C121.035 78.7383 120.883 76.9102 121.07 74.7305C121.281 72.5508 121.797 70.6523 122.617 69.0352C123.461 67.3945 124.504 66.0352 125.746 64.957C126.988 63.8789 128.383 63.0703 129.93 62.5312C131.5 61.9688 133.105 61.6641 134.746 61.6172ZM156.227 60.4922C157.492 60.5391 158.77 60.7734 160.059 61.1953C161.371 61.5938 162.578 62.25 163.68 63.1641C164.781 64.0547 165.719 65.2148 166.492 66.6445C167.266 68.0508 167.746 69.7734 167.934 71.8125C168.098 73.4766 167.887 75.1289 167.301 76.7695C166.738 78.3867 165.953 79.875 164.945 81.2344C163.938 82.5938 162.777 83.7539 161.465 84.7148C160.152 85.6523 158.84 86.2734 157.527 86.5781C156.73 86.7656 155.852 86.7891 154.891 86.6484C153.953 86.4844 152.992 86.1914 152.008 85.7695C151.047 85.3242 150.098 84.7617 149.16 84.082C148.246 83.4023 147.414 82.6289 146.664 81.7617C145.914 80.8711 145.281 79.9102 144.766 78.8789C144.273 77.8477 143.969 76.7695 143.852 75.6445C143.734 74.707 143.723 73.6758 143.816 72.5508C143.934 71.4023 144.156 70.2656 144.484 69.1406C144.836 67.9922 145.316 66.8906 145.926 65.8359C146.559 64.7578 147.355 63.8203 148.316 63.0234C149.277 62.2031 150.402 61.5703 151.691 61.125C153.004 60.6562 154.516 60.4453 156.227 60.4922ZM149.934 74.7305C149.605 77.2383 149.84 79.2539 150.637 80.7773C151.457 82.3008 152.688 83.2266 154.328 83.5547C155.125 83.7188 155.887 83.5547 156.613 83.0625C157.363 82.5469 158.043 81.8086 158.652 80.8477C159.262 79.8867 159.789 78.7617 160.234 77.4727C160.68 76.1836 161.008 74.8359 161.219 73.4297C161.43 72.0234 161.441 70.7578 161.254 69.6328C161.09 68.4844 160.797 67.5117 160.375 66.7148C159.953 65.8945 159.438 65.2617 158.828 64.8164C158.242 64.3711 157.633 64.125 157 64.0781C155.898 64.0078 154.938 64.3008 154.117 64.957C153.297 65.5898 152.605 66.4219 152.043 67.4531C151.48 68.4844 151.023 69.6445 150.672 70.9336C150.344 72.2227 150.098 73.4883 149.934 74.7305ZM171.344 61.6523C171.789 61.7695 172.211 61.8633 172.609 61.9336C173.008 61.9805 173.359 62.0273 173.664 62.0742C174.016 62.1211 174.344 62.1562 174.648 62.1797C174.977 62.2031 175.363 62.2266 175.809 62.25C176.207 62.2734 176.688 62.2852 177.25 62.2852C177.812 62.2852 178.48 62.2852 179.254 62.2852C178.574 63.9023 178.023 65.2734 177.602 66.3984C177.18 67.5 176.852 68.4141 176.617 69.1406C176.359 69.9844 176.172 70.6758 176.055 71.2148C175.961 71.7539 175.844 72.4102 175.703 73.1836C175.586 73.8633 175.422 74.6953 175.211 75.6797C175 76.6641 174.766 77.8359 174.508 79.1953L171.414 79.0547C171.602 77.8125 171.73 76.7578 171.801 75.8906C171.871 75 171.93 74.2617 171.977 73.6758C172.023 72.9961 172.047 72.4336 172.047 71.9883C172.047 71.5195 172.012 70.8164 171.941 69.8789C171.895 69.1055 171.824 68.0625 171.73 66.75C171.637 65.4141 171.508 63.7148 171.344 61.6523ZM175.211 81.8672C175.375 82.125 175.469 82.418 175.492 82.7461C175.539 83.0508 175.516 83.3672 175.422 83.6953C175.352 84 175.199 84.293 174.965 84.5742C174.754 84.8555 174.461 85.0781 174.086 85.2422C173.336 85.5938 172.668 85.6875 172.082 85.5234C171.496 85.3359 171.062 85.0312 170.781 84.6094C170.617 84.375 170.523 84.1172 170.5 83.8359C170.5 83.5312 170.559 83.2383 170.676 82.957C170.793 82.6523 170.98 82.3711 171.238 82.1133C171.496 81.8555 171.824 81.6445 172.223 81.4805C172.996 81.1523 173.629 81.0352 174.121 81.1289C174.637 81.2227 175 81.4688 175.211 81.8672Z" fill="white"/>
<path d="M134.746 61.6172L134.699 58.6176L134.68 58.6179L134.66 58.6184L134.746 61.6172ZM138.438 62.4258L136.922 65.0148L136.935 65.0227L136.949 65.0305L138.438 62.4258ZM142.234 66.7852L139.46 67.9274L139.466 67.9421L139.473 67.9568L142.234 66.7852ZM143.008 68.6133L145.793 67.4991L145.783 67.474L145.773 67.4491L143.008 68.6133ZM143.289 69.0703L145.73 67.3266L145.71 67.2982L145.689 67.2703L143.289 69.0703ZM143.781 69.668L141.551 71.6749L141.657 71.7922L141.774 71.8979L143.781 69.668ZM144.66 70.4062L144.757 73.4047L152.883 73.1426L146.534 68.0636L144.66 70.4062ZM142.727 70.4766V73.4766H142.789L142.851 73.474L142.727 70.4766ZM141.285 70.5117L141.443 73.5076L141.452 73.5071L141.461 73.5065L141.285 70.5117ZM138.789 70.6875L138.517 67.6998L138.504 67.701L138.491 67.7024L138.789 70.6875ZM134.57 71.0391L132.266 69.1185L127.601 74.7164L134.855 74.0255L134.57 71.0391ZM135.941 69.1758L133.397 67.5858L133.388 67.6008L133.379 67.6159L135.941 69.1758ZM136.715 67.6992L133.95 66.535L133.934 66.5732L133.919 66.6119L136.715 67.6992ZM137.031 66.5391L134.061 66.1148L134.046 66.2197L134.039 66.3253L137.031 66.5391ZM136.996 65.6953L134.093 66.4526L134.107 66.5052L134.123 66.5574L136.996 65.6953ZM135.906 64.5352L137.02 61.7497L136.868 61.6886L136.709 61.6446L135.906 64.5352ZM131.477 65.6602L133.557 67.8219L133.557 67.8211L131.477 65.6602ZM128.805 71.5664L125.861 70.9877L125.859 70.9976L125.857 71.0074L128.805 71.5664ZM128.066 75.8203L125.103 75.35L125.1 75.3697L125.098 75.3893L128.066 75.8203ZM127.82 79.8281L124.823 79.9434L124.823 79.9457L127.82 79.8281ZM130.703 83.8008L130.839 86.7977L130.843 86.7975L130.703 83.8008ZM133.27 83.3086L134.384 86.094L134.423 86.0782L134.462 86.0613L133.27 83.3086ZM134.957 82.2539L137.017 84.4349L137.048 84.4055L137.078 84.3752L134.957 82.2539ZM135.836 80.918L133.032 79.85L133.018 79.8883L133.004 79.9269L135.836 80.918ZM136.047 79.5469L139.029 79.2156L139.001 78.9651L138.931 78.7227L136.047 79.5469ZM135.309 78.4922L137.365 76.3076L137.356 76.299L135.309 78.4922ZM133.727 77.4023L132.183 79.9748L132.215 79.994L132.248 80.0124L133.727 77.4023ZM130.703 76.1016L130.534 73.1064L129.739 78.9425L130.703 76.1016ZM133.762 75.9609L133.85 78.9596L133.891 78.9584L133.933 78.9561L133.762 75.9609ZM135.695 75.8203L135.446 72.8307L135.421 72.8327L135.397 72.8352L135.695 75.8203ZM136.996 75.7148L137.226 78.706L137.236 78.7053L137.245 78.7045L136.996 75.7148ZM138.227 75.6445L138.357 78.6417L138.367 78.6413L138.376 78.6408L138.227 75.6445ZM142.832 75.5742L144.953 77.6955L150.229 72.4195L142.77 72.5749L142.832 75.5742ZM141.848 76.7344L139.352 75.0703L139.327 75.107L139.304 75.1444L141.848 76.7344ZM141.531 77.2266L139.035 75.5625L138.862 75.8224L138.746 76.1124L141.531 77.2266ZM141.426 78.668H144.426V78.6196L144.424 78.5712L141.426 78.668ZM141.566 81.375L138.576 81.6096L138.576 81.6142L141.566 81.375ZM142.094 86.1914L142.496 89.1643L145.443 88.7655L145.07 85.8151L142.094 86.1914ZM137.418 86.8242L134.421 86.691L134.261 90.2788L137.82 89.7971L137.418 86.8242ZM137.629 82.0781L140.626 82.2113L134.861 80.9207L137.629 82.0781ZM135.59 84.9609L133.757 82.5856L133.741 82.5985L133.724 82.6116L135.59 84.9609ZM133.305 86.2969L134.299 89.1273L134.308 89.1242L133.305 86.2969ZM130.598 86.7188L130.311 89.705L130.416 89.7152L130.523 89.7178L130.598 86.7188ZM123.707 83.8359L121.586 85.9573L121.599 85.9707L121.613 85.9839L123.707 83.8359ZM121.527 80.2148L118.681 81.1635L118.688 81.1838L118.695 81.2039L121.527 80.2148ZM121.07 74.7305L118.084 74.4415L118.083 74.4574L118.081 74.4734L121.07 74.7305ZM122.617 69.0352L119.949 67.6631L119.945 67.6706L119.942 67.678L122.617 69.0352ZM129.93 62.5312L130.917 65.3642L130.929 65.3599L130.941 65.3555L129.93 62.5312ZM134.746 61.6172L134.793 64.6168C135.929 64.5991 136.572 64.8098 136.922 65.0148L138.438 62.4258L139.953 59.8367C138.381 58.9168 136.563 58.5884 134.699 58.6176L134.746 61.6172ZM138.438 62.4258L136.949 65.0305C137.649 65.4304 138.134 65.858 138.472 66.2863L140.828 64.4297L143.185 62.5731C142.303 61.4545 141.195 60.5462 139.926 59.8211L138.438 62.4258ZM140.828 64.4297L138.472 66.2863C138.933 66.8724 139.252 67.4202 139.46 67.9274L142.234 66.7852L145.008 65.6429C144.561 64.5563 143.942 63.5338 143.185 62.5731L140.828 64.4297ZM142.234 66.7852L139.473 67.9568C139.8 68.7293 140.057 69.3358 140.243 69.7775L143.008 68.6133L145.773 67.4491C145.584 67.0001 145.325 66.3879 144.996 65.6135L142.234 66.7852ZM143.008 68.6133L140.222 69.7275C140.418 70.2154 140.701 70.6193 140.889 70.8703L143.289 69.0703L145.689 67.2703C145.658 67.229 145.655 67.2214 145.668 67.2431C145.676 67.2551 145.691 67.2812 145.712 67.3201C145.731 67.3581 145.761 67.4187 145.793 67.4991L143.008 68.6133ZM143.289 69.0703L140.848 70.814C141.056 71.1057 141.302 71.3978 141.551 71.6749L143.781 69.668L146.011 67.6611C145.839 67.4694 145.756 67.3631 145.73 67.3266L143.289 69.0703ZM143.781 69.668L141.774 71.8979C142.066 72.1601 142.407 72.4452 142.786 72.7489L144.66 70.4062L146.534 68.0636C146.211 67.8048 145.965 67.5977 145.788 67.4381L143.781 69.668ZM144.66 70.4062L144.563 67.4078C143.83 67.4315 143.176 67.4552 142.602 67.4792L142.727 70.4766L142.851 73.474C143.402 73.451 144.037 73.4279 144.757 73.4047L144.66 70.4062ZM142.727 70.4766V67.4766C142.127 67.4766 141.584 67.4889 141.109 67.5169L141.285 70.5117L141.461 73.5065C141.783 73.4876 142.201 73.4766 142.727 73.4766V70.4766ZM141.285 70.5117L141.127 67.5159C140.672 67.5399 140.259 67.5641 139.89 67.5887L140.09 70.582L140.289 73.5754C140.624 73.5531 141.008 73.5305 141.443 73.5076L141.285 70.5117ZM140.09 70.582L139.89 67.5887C139.506 67.6143 139.047 67.6517 138.517 67.6998L138.789 70.6875L139.061 73.6752C139.562 73.6296 139.97 73.5967 140.289 73.5754L140.09 70.582ZM138.789 70.6875L138.491 67.7024C138.063 67.7452 137.521 67.7896 136.86 67.8352L137.066 70.8281L137.273 73.821C137.971 73.7729 138.578 73.7236 139.088 73.6726L138.789 70.6875ZM137.066 70.8281L136.86 67.8352C136.146 67.8845 135.286 67.9573 134.286 68.0526L134.57 71.0391L134.855 74.0255C135.824 73.9333 136.628 73.8655 137.273 73.821L137.066 70.8281ZM134.57 71.0391L136.875 72.9596C137.517 72.1886 138.073 71.4435 138.504 70.7356L135.941 69.1758L133.379 67.6159C133.153 67.9862 132.795 68.4833 132.266 69.1185L134.57 71.0391ZM135.941 69.1758L138.485 70.7658C138.895 70.1102 139.255 69.4438 139.511 68.7866L136.715 67.6992L133.919 66.6119C133.846 66.7984 133.691 67.1163 133.397 67.5858L135.941 69.1758ZM136.715 67.6992L139.48 68.8634C139.741 68.244 139.969 67.5227 140.024 66.7528L137.031 66.5391L134.039 66.3253C134.044 66.2581 134.052 66.2415 134.04 66.2858C134.029 66.3288 134.002 66.4105 133.95 66.535L136.715 67.6992ZM137.031 66.5391L140.001 66.9633C140.089 66.349 140.101 65.6045 139.87 64.8333L136.996 65.6953L134.123 66.5574C134.032 66.2548 134.067 66.0729 134.061 66.1148L137.031 66.5391ZM136.996 65.6953L139.899 64.938C139.483 63.3453 138.356 62.2839 137.02 61.7497L135.906 64.5352L134.792 67.3206C134.755 67.3056 134.601 67.2355 134.432 67.055C134.253 66.8643 134.143 66.6433 134.093 66.4526L136.996 65.6953ZM135.906 64.5352L136.709 61.6446C133.995 60.8906 131.423 61.5472 129.396 63.4992L131.477 65.6602L133.557 67.8211C134.062 67.3357 134.443 67.2422 135.103 67.4257L135.906 64.5352ZM131.477 65.6602L129.396 63.4984C127.512 65.3113 126.451 67.9845 125.861 70.9877L128.805 71.5664L131.748 72.1451C132.236 69.6639 132.956 68.3996 133.557 67.8219L131.477 65.6602ZM128.805 71.5664L125.857 71.0074C125.593 72.3985 125.342 73.8461 125.103 75.35L128.066 75.8203L131.029 76.2906C131.259 74.8414 131.5 73.4531 131.752 72.1254L128.805 71.5664ZM128.066 75.8203L125.098 75.3893C124.865 76.9881 124.767 78.5097 124.823 79.9434L127.82 79.8281L130.818 79.7128C130.779 78.7091 130.845 77.5588 131.035 76.2513L128.066 75.8203ZM127.82 79.8281L124.823 79.9457C124.881 81.4412 125.181 82.923 125.909 84.2169L128.523 82.7461L131.138 81.2753C131.022 81.0692 130.853 80.6057 130.818 79.7106L127.82 79.8281ZM128.523 82.7461L125.909 84.2169C126.399 85.0884 127.126 85.8122 128.078 86.2727C128.998 86.718 129.961 86.8376 130.839 86.7977L130.703 83.8008L130.567 80.8039C130.414 80.8108 130.498 80.7781 130.691 80.8718C130.789 80.9189 130.887 80.9856 130.974 81.0688C131.059 81.1508 131.111 81.2271 131.138 81.2753L128.523 82.7461ZM130.703 83.8008L130.843 86.7975C132.081 86.74 133.286 86.5332 134.384 86.094L133.27 83.3086L132.155 80.5232C131.847 80.6465 131.341 80.7679 130.564 80.804L130.703 83.8008ZM133.27 83.3086L134.462 86.0613C135.389 85.6598 136.275 85.1359 137.017 84.4349L134.957 82.2539L132.897 80.0729C132.796 80.1688 132.556 80.348 132.077 80.5559L133.27 83.3086ZM134.957 82.2539L137.078 84.3752C137.756 83.698 138.328 82.8802 138.668 81.909L135.836 80.918L133.004 79.9269C133.016 79.8932 133.002 79.966 132.836 80.1326L134.957 82.2539ZM135.836 80.918L138.639 81.986C138.957 81.1534 139.139 80.212 139.029 79.2156L136.047 79.5469L133.065 79.8782C133.061 79.8423 133.061 79.8125 133.061 79.7899C133.062 79.7675 133.064 79.7538 133.064 79.7499C133.065 79.7428 133.061 79.7748 133.032 79.85L135.836 80.918ZM136.047 79.5469L138.931 78.7227C138.625 77.6501 137.942 76.8511 137.365 76.3076L135.309 78.4922L133.252 80.6768C133.341 80.76 133.356 80.7883 133.334 80.7575C133.313 80.7275 133.227 80.5977 133.162 80.371L136.047 79.5469ZM135.309 78.4922L137.356 76.299C136.755 75.7381 135.995 75.2397 135.206 74.7923L133.727 77.4023L132.248 80.0124C132.864 80.3618 133.159 80.59 133.262 80.6854L135.309 78.4922ZM133.727 77.4023L135.27 74.8299C134.301 74.2486 133.064 73.7345 131.667 73.2606L130.703 76.1016L129.739 78.9425C130.968 79.3593 131.746 79.7124 132.183 79.9748L133.727 77.4023ZM130.703 76.1016L130.873 79.0968C132.101 79.0272 133.091 78.982 133.85 78.9596L133.762 75.9609L133.674 72.9622C132.839 72.9868 131.79 73.0353 130.534 73.1064L130.703 76.1016ZM133.762 75.9609L133.933 78.9561C134.77 78.9082 135.463 78.8585 135.994 78.8054L135.695 75.8203L135.397 72.8352C134.99 72.8759 134.395 72.9199 133.591 72.9658L133.762 75.9609ZM135.695 75.8203L135.944 78.8099C136.505 78.7632 136.931 78.7287 137.226 78.706L136.996 75.7148L136.766 72.7237C136.452 72.7479 136.011 72.7836 135.446 72.8307L135.695 75.8203ZM136.996 75.7148L137.245 78.7045C137.466 78.6861 137.829 78.6647 138.357 78.6417L138.227 75.6445L138.096 72.6474C137.546 72.6713 137.089 72.6967 136.747 72.7252L136.996 75.7148ZM138.227 75.6445L138.376 78.6408C138.776 78.6208 139.319 78.6094 140.02 78.6094V75.6094V72.6094C139.267 72.6094 138.615 72.6214 138.077 72.6483L138.227 75.6445ZM140.02 75.6094V78.6094C140.798 78.6094 141.758 78.5972 142.895 78.5736L142.832 75.5742L142.77 72.5749C141.656 72.5981 140.741 72.6094 140.02 72.6094V75.6094ZM142.832 75.5742L140.711 73.4529C140.201 73.9623 139.73 74.5026 139.352 75.0703L141.848 76.7344L144.344 78.3985C144.434 78.263 144.619 78.0299 144.953 77.6955L142.832 75.5742ZM141.848 76.7344L139.304 75.1444C139.198 75.314 139.108 75.4524 139.035 75.5625L141.531 77.2266L144.027 78.8907C144.142 78.7195 144.263 78.5297 144.392 78.3244L141.848 76.7344ZM141.531 77.2266L138.746 76.1124C138.523 76.6689 138.466 77.2219 138.443 77.5438C138.414 77.9274 138.414 78.3433 138.427 78.7647L141.426 78.668L144.424 78.5712C144.419 78.4234 144.418 78.2998 144.419 78.1983C144.42 78.0957 144.423 78.0252 144.427 77.9816C144.43 77.935 144.432 77.9394 144.424 77.9809C144.42 78.0032 144.412 78.0447 144.397 78.1008C144.382 78.1557 144.357 78.2389 144.317 78.3407L141.531 77.2266ZM141.426 78.668H138.426C138.426 79.3984 138.48 80.3955 138.576 81.6096L141.566 81.375L144.557 81.1404C144.465 79.9639 144.426 79.1563 144.426 78.668H141.426ZM141.566 81.375L138.576 81.6142C138.675 82.8535 138.857 84.5113 139.117 86.5677L142.094 86.1914L145.07 85.8151C144.814 83.7934 144.645 82.2403 144.557 81.1358L141.566 81.375ZM142.094 86.1914L141.691 83.2185L137.016 83.8513L137.418 86.8242L137.82 89.7971L142.496 89.1643L142.094 86.1914ZM137.418 86.8242L140.415 86.9574L140.626 82.2113L137.629 82.0781L134.632 81.9449L134.421 86.691L137.418 86.8242ZM137.629 82.0781L134.861 80.9207C134.456 81.8906 134.046 82.3626 133.757 82.5856L135.59 84.9609L137.422 87.3363C138.774 86.2936 139.724 84.8438 140.397 83.2355L137.629 82.0781ZM135.59 84.9609L133.724 82.6116C133.109 83.1005 132.634 83.3514 132.301 83.4696L133.305 86.2969L134.308 89.1242C135.428 88.7267 136.477 88.087 137.455 87.3103L135.59 84.9609ZM133.305 86.2969L132.31 83.4665C131.793 83.6481 131.254 83.7342 130.673 83.7197L130.598 86.7188L130.523 89.7178C131.816 89.7502 133.082 89.555 134.299 89.1273L133.305 86.2969ZM130.598 86.7188L130.885 83.7325C129.934 83.6411 128.965 83.4203 127.971 83.0572L126.941 85.875L125.912 88.6928C127.356 89.2203 128.823 89.562 130.311 89.705L130.598 86.7188ZM126.941 85.875L127.971 83.0572C127.154 82.7588 126.438 82.3088 125.801 81.6879L123.707 83.8359L121.613 85.9839C122.851 87.1912 124.291 88.1006 125.912 88.6928L126.941 85.875ZM123.707 83.8359L125.828 81.7146C125.262 81.1487 124.753 80.3522 124.36 79.2258L121.527 80.2148L118.695 81.2039C119.333 83.0306 120.277 84.6482 121.586 85.9573L123.707 83.8359ZM121.527 80.2148L124.373 79.2662C124.052 78.3011 123.894 76.9134 124.059 74.9876L121.07 74.7305L118.081 74.4734C117.872 76.9069 118.019 79.1754 118.681 81.1635L121.527 80.2148ZM121.07 74.7305L124.056 75.0194C124.239 73.1368 124.673 71.6145 125.293 70.3923L122.617 69.0352L119.942 67.678C118.921 69.6902 118.324 71.9648 118.084 74.4415L121.07 74.7305ZM122.617 69.0352L125.285 70.4072C125.975 69.0652 126.792 68.0217 127.713 67.2227L125.746 64.957L123.78 62.6914C122.216 64.0486 120.947 65.7239 119.949 67.6631L122.617 69.0352ZM125.746 64.957L127.713 67.2227C128.668 66.393 129.731 65.7774 130.917 65.3642L129.93 62.5312L128.942 59.6983C127.035 60.3632 125.308 61.3648 123.78 62.6914L125.746 64.957ZM129.93 62.5312L130.941 65.3555C132.219 64.8978 133.512 64.6537 134.832 64.616L134.746 61.6172L134.66 58.6184C132.699 58.6745 130.781 59.0397 128.918 59.707L129.93 62.5312ZM156.227 60.4922L156.338 57.4942L156.323 57.4937L156.309 57.4933L156.227 60.4922ZM160.059 61.1953L159.125 64.0465L159.156 64.0566L159.187 64.066L160.059 61.1953ZM163.68 63.1641L161.764 65.4727L161.779 65.4849L161.794 65.497L163.68 63.1641ZM166.492 66.6445L163.854 68.072L163.859 68.0812L163.864 68.0903L166.492 66.6445ZM167.934 71.8125L164.946 72.0872L164.947 72.097L164.948 72.1068L167.934 71.8125ZM167.301 76.7695L164.476 75.7605L164.471 75.7722L164.467 75.784L167.301 76.7695ZM161.465 84.7148L163.209 87.156L163.223 87.1458L163.237 87.1354L161.465 84.7148ZM157.527 86.5781L156.849 83.6558L156.84 83.6579L157.527 86.5781ZM154.891 86.6484L154.373 89.6035L154.415 89.6108L154.456 89.6168L154.891 86.6484ZM152.008 85.7695L150.746 88.4915L150.786 88.5098L150.826 88.527L152.008 85.7695ZM149.16 84.082L147.37 86.4894L147.385 86.5002L147.399 86.5109L149.16 84.082ZM146.664 81.7617L144.369 83.6941L144.382 83.7092L144.395 83.7242L146.664 81.7617ZM144.766 78.8789L142.058 80.1711L142.07 80.1959L142.082 80.2205L144.766 78.8789ZM143.852 75.6445L146.835 75.3337L146.832 75.303L146.828 75.2724L143.852 75.6445ZM143.816 72.5508L140.832 72.2462L140.829 72.2739L140.827 72.3016L143.816 72.5508ZM144.484 69.1406L141.616 68.2625L141.61 68.2815L141.604 68.3006L144.484 69.1406ZM145.926 65.8359L143.339 64.3173L143.333 64.3262L143.328 64.3351L145.926 65.8359ZM148.316 63.0234L150.231 65.3327L150.248 65.319L150.264 65.3051L148.316 63.0234ZM151.691 61.125L152.671 63.9606L152.686 63.9555L152.7 63.9502L151.691 61.125ZM149.934 74.7305L146.959 74.3377L146.959 74.3413L149.934 74.7305ZM150.637 80.7773L147.978 82.1678L147.987 82.1838L147.995 82.1996L150.637 80.7773ZM154.328 83.5547L154.933 80.6163L154.925 80.6146L154.916 80.6129L154.328 83.5547ZM156.613 83.0625L158.296 85.5463L158.304 85.5405L158.313 85.5346L156.613 83.0625ZM161.254 69.6328L158.284 70.0571L158.289 70.0916L158.295 70.126L161.254 69.6328ZM160.375 66.7148L157.707 68.0869L157.715 68.1027L157.724 68.1185L160.375 66.7148ZM158.828 64.8164L157.013 67.2049L157.035 67.2219L157.058 67.2386L158.828 64.8164ZM157 64.0781L157.222 61.0863L157.206 61.0852L157.191 61.0842L157 64.0781ZM154.117 64.957L155.95 67.3324L155.971 67.3162L155.991 67.2996L154.117 64.957ZM150.672 70.9336L147.778 70.1442L147.771 70.1688L147.765 70.1936L150.672 70.9336ZM156.227 60.4922L156.116 63.4901C157.083 63.5259 158.083 63.7055 159.125 64.0465L160.059 61.1953L160.992 58.3441C159.456 57.8414 157.902 57.5522 156.338 57.4942L156.227 60.4922ZM160.059 61.1953L159.187 64.066C160.101 64.3434 160.956 64.8023 161.764 65.4727L163.68 63.1641L165.595 60.8554C164.2 59.6977 162.641 58.8441 160.93 58.3247L160.059 61.1953ZM163.68 63.1641L161.794 65.497C162.545 66.1044 163.241 66.9398 163.854 68.072L166.492 66.6445L169.131 65.2171C168.196 63.4898 167.018 62.005 165.566 60.8312L163.68 63.1641ZM166.492 66.6445L163.864 68.0903C164.391 69.05 164.786 70.35 164.946 72.0872L167.934 71.8125L170.921 71.5378C170.706 69.1969 170.14 67.0515 169.121 65.1988L166.492 66.6445ZM167.934 71.8125L164.948 72.1068C165.067 73.3114 164.919 74.5192 164.476 75.7605L167.301 76.7695L170.126 77.7785C170.855 75.7386 171.128 73.6417 170.919 71.5182L167.934 71.8125ZM167.301 76.7695L164.467 75.784C164.003 77.1177 163.36 78.3353 162.535 79.4477L164.945 81.2344L167.355 83.0211C168.546 81.4147 169.473 79.6558 170.134 77.7551L167.301 76.7695ZM164.945 81.2344L162.535 79.4477C161.7 80.5748 160.752 81.5185 159.693 82.2943L161.465 84.7148L163.237 87.1354C164.802 85.9893 166.175 84.6127 167.355 83.0211L164.945 81.2344ZM161.465 84.7148L159.721 82.2736C158.667 83.0266 157.711 83.4558 156.849 83.6558L157.527 86.5781L158.206 89.5004C159.969 89.0911 161.638 88.2781 163.209 87.156L161.465 84.7148ZM157.527 86.5781L156.84 83.6579C156.472 83.7444 155.981 83.776 155.325 83.6801L154.891 86.6484L154.456 89.6168C155.723 89.8021 156.989 89.7868 158.214 89.4984L157.527 86.5781ZM154.891 86.6484L155.408 83.6933C154.725 83.5739 153.987 83.3538 153.19 83.0121L152.008 85.7695L150.826 88.527C151.997 89.029 153.181 89.3949 154.373 89.6035L154.891 86.6484ZM152.008 85.7695L153.269 83.0476C152.499 82.6908 151.716 82.2297 150.921 81.6532L149.16 84.082L147.399 86.5109C148.479 87.2937 149.595 87.9576 150.746 88.4915L152.008 85.7695ZM149.16 84.082L150.95 81.6746C150.213 81.1262 149.541 80.5022 148.933 79.7993L146.664 81.7617L144.395 83.7242C145.287 84.7556 146.279 85.6785 147.37 86.4894L149.16 84.082ZM146.664 81.7617L148.959 79.8293C148.36 79.1178 147.858 78.3549 147.449 77.5373L144.766 78.8789L142.082 80.2205C142.705 81.4654 143.468 82.6244 144.369 83.6941L146.664 81.7617ZM144.766 78.8789L147.473 77.5867C147.127 76.8612 146.917 76.1147 146.835 75.3337L143.852 75.6445L140.868 75.9553C141.021 77.4244 141.42 78.8341 142.058 80.1711L144.766 78.8789ZM143.852 75.6445L146.828 75.2724C146.741 74.5763 146.726 73.7566 146.806 72.7999L143.816 72.5508L140.827 72.3016C140.719 73.5949 140.727 74.8378 140.875 76.0166L143.852 75.6445ZM143.816 72.5508L146.801 72.8553C146.899 71.8909 147.087 70.9333 147.364 69.9806L144.484 69.1406L141.604 68.3006C141.226 69.5979 140.968 70.9138 140.832 72.2462L143.816 72.5508ZM144.484 69.1406L147.353 70.0188C147.637 69.0906 148.026 68.1976 148.523 67.3368L145.926 65.8359L143.328 64.3351C142.607 65.5836 142.035 66.8938 141.616 68.2625L144.484 69.1406ZM145.926 65.8359L148.513 67.3545C148.97 66.5766 149.539 65.9068 150.231 65.3327L148.316 63.0234L146.401 60.7142C145.172 61.7339 144.148 62.939 143.339 64.3173L145.926 65.8359ZM148.316 63.0234L150.264 65.3051C150.918 64.7471 151.708 64.2932 152.671 63.9606L151.691 61.125L150.712 58.2894C149.097 58.8474 147.637 59.6592 146.369 60.7417L148.316 63.0234ZM151.691 61.125L152.7 63.9502C153.593 63.6313 154.723 63.4521 156.144 63.4911L156.227 60.4922L156.309 57.4933C154.308 57.4385 152.414 57.6812 150.682 58.2998L151.691 61.125ZM149.934 74.7305L146.959 74.3413C146.587 77.1868 146.79 79.8956 147.978 82.1678L150.637 80.7773L153.295 79.3869C152.89 78.6122 152.624 77.2897 152.908 75.1197L149.934 74.7305ZM150.637 80.7773L147.995 82.1996C149.223 84.4791 151.189 85.9862 153.74 86.4964L154.328 83.5547L154.916 80.6129C154.186 80.4669 153.691 80.1224 153.278 79.355L150.637 80.7773ZM154.328 83.5547L153.723 86.4931C155.379 86.834 156.958 86.4527 158.296 85.5463L156.613 83.0625L154.931 80.5787C154.887 80.6086 154.86 80.6213 154.851 80.6251C154.843 80.6287 154.849 80.6256 154.865 80.6219C154.873 80.6202 154.882 80.6187 154.892 80.6177C154.902 80.6166 154.911 80.6162 154.919 80.6162C154.936 80.6162 154.942 80.6181 154.933 80.6163L154.328 83.5547ZM156.613 83.0625L158.313 85.5346C159.469 84.7401 160.412 83.6743 161.186 82.4543L158.652 80.8477L156.119 79.241C155.674 79.9429 155.258 80.3537 154.914 80.5904L156.613 83.0625ZM158.652 80.8477L161.186 82.4543C161.942 81.2625 162.563 79.9193 163.07 78.4522L160.234 77.4727L157.399 76.4931C157.015 77.6041 156.582 78.5109 156.119 79.241L158.652 80.8477ZM160.234 77.4727L163.07 78.4522C163.578 76.9821 163.949 75.4551 164.186 73.8747L161.219 73.4297L158.252 72.9847C158.067 74.2168 157.782 75.385 157.399 76.4931L160.234 77.4727ZM161.219 73.4297L164.186 73.8747C164.432 72.2307 164.463 70.6407 164.213 69.1396L161.254 69.6328L158.295 70.126C158.42 70.875 158.427 71.8162 158.252 72.9847L161.219 73.4297ZM161.254 69.6328L164.224 69.2085C164.024 67.811 163.649 66.4872 163.026 65.3112L160.375 66.7148L157.724 68.1185C157.945 68.5363 158.156 69.1578 158.284 70.0571L161.254 69.6328ZM160.375 66.7148L163.043 65.3428C162.454 64.1981 161.659 63.1695 160.598 62.3942L158.828 64.8164L157.058 67.2386C157.216 67.354 157.452 67.5909 157.707 68.0869L160.375 66.7148ZM158.828 64.8164L160.643 62.4279C159.671 61.689 158.521 61.1825 157.222 61.0863L157 64.0781L156.778 67.0699C156.779 67.0699 156.779 67.07 156.779 67.07C156.779 67.07 156.78 67.0702 156.782 67.0705C156.784 67.0712 156.793 67.0734 156.808 67.0796C156.838 67.0917 156.907 67.1245 157.013 67.2049L158.828 64.8164ZM157 64.0781L157.191 61.0842C155.386 60.969 153.678 61.4662 152.243 62.6144L154.117 64.957L155.991 67.2996C156.197 67.1354 156.411 67.0467 156.809 67.072L157 64.0781ZM154.117 64.957L152.285 62.5817C151.094 63.5004 150.144 64.669 149.409 66.0166L152.043 67.4531L154.677 68.8897C155.067 68.1747 155.5 67.6793 155.95 67.3324L154.117 64.957ZM152.043 67.4531L149.409 66.0166C148.721 67.2784 148.182 68.6602 147.778 70.1442L150.672 70.9336L153.566 71.7229C153.865 70.6288 154.24 69.6903 154.677 68.8897L152.043 67.4531ZM150.672 70.9336L147.765 70.1936C147.409 71.59 147.14 72.9716 146.959 74.3377L149.934 74.7305L152.908 75.1233C153.055 74.005 153.278 72.8553 153.579 71.6736L150.672 70.9336ZM171.344 61.6523L172.107 58.7511L168.018 57.675L168.353 61.8902L171.344 61.6523ZM172.609 61.9336L172.088 64.8879L172.173 64.903L172.259 64.913L172.609 61.9336ZM173.664 62.0742L173.208 65.0393L173.238 65.0439L173.268 65.0479L173.664 62.0742ZM174.648 62.1797L174.418 65.1709L174.427 65.1715L174.435 65.1721L174.648 62.1797ZM175.809 62.25L175.985 59.2552L175.976 59.2546L175.966 59.2541L175.809 62.25ZM179.254 62.2852L182.02 63.4475L183.769 59.2852H179.254V62.2852ZM177.602 66.3984L180.403 67.4714L180.407 67.4616L180.411 67.4518L177.602 66.3984ZM176.617 69.1406L173.762 68.2196L173.755 68.2417L173.748 68.264L176.617 69.1406ZM176.055 71.2148L173.123 70.5776L173.11 70.6389L173.099 70.7008L176.055 71.2148ZM175.703 73.1836L172.752 72.6469L172.749 72.6604L172.747 72.6739L175.703 73.1836ZM174.508 79.1953L174.372 82.1922L176.971 82.3104L177.455 79.7543L174.508 79.1953ZM171.414 79.0547L168.448 78.6069L167.951 81.9004L171.278 82.0516L171.414 79.0547ZM171.801 75.8906L174.791 76.1331L174.791 76.1267L171.801 75.8906ZM171.977 73.6758L174.967 73.915L174.968 73.8986L174.969 73.8822L171.977 73.6758ZM171.941 69.8789L168.947 70.0604L168.948 70.0818L168.95 70.1033L171.941 69.8789ZM171.73 66.75L168.738 66.96L168.738 66.9637L171.73 66.75ZM175.211 81.8672L172.56 83.2709L172.616 83.3767L172.68 83.4778L175.211 81.8672ZM175.492 82.7461L172.5 82.9598L172.509 83.0816L172.527 83.2023L175.492 82.7461ZM175.422 83.6953L172.537 82.8711L172.516 82.9454L172.499 83.0207L175.422 83.6953ZM174.965 84.5742L172.66 82.6537L172.611 82.7127L172.565 82.7742L174.965 84.5742ZM174.086 85.2422L172.883 82.4937L172.848 82.5093L172.813 82.5258L174.086 85.2422ZM172.082 85.5234L171.168 88.3807L171.22 88.3975L171.273 88.4123L172.082 85.5234ZM170.781 84.6094L173.277 82.9453L173.258 82.9169L173.239 82.889L170.781 84.6094ZM170.5 83.8359H167.5V83.9607L167.51 84.0851L170.5 83.8359ZM170.676 82.957L173.445 84.1109L173.461 84.0726L173.476 84.034L170.676 82.957ZM172.223 81.4805L173.365 84.2545L173.38 84.2484L173.394 84.2422L172.223 81.4805ZM174.121 81.1289L173.56 84.0759L173.572 84.0783L173.584 84.0805L174.121 81.1289ZM171.344 61.6523L170.58 64.5536C171.095 64.689 171.598 64.8015 172.088 64.8879L172.609 61.9336L173.131 58.9792C172.824 58.9251 172.483 58.8501 172.107 58.7511L171.344 61.6523ZM172.609 61.9336L172.259 64.913C172.632 64.9569 172.947 64.9992 173.208 65.0393L173.664 62.0742L174.12 59.1091C173.772 59.0555 173.384 59.004 172.96 58.9541L172.609 61.9336ZM173.664 62.0742L173.268 65.0479C173.666 65.101 174.05 65.1425 174.418 65.1709L174.648 62.1797L174.879 59.1885C174.637 59.17 174.365 59.1412 174.061 59.1005L173.664 62.0742ZM174.648 62.1797L174.435 65.1721C174.787 65.1972 175.193 65.2218 175.651 65.2459L175.809 62.25L175.966 59.2541C175.534 59.2314 175.166 59.209 174.862 59.1873L174.648 62.1797ZM175.809 62.25L175.632 65.2448C176.108 65.2728 176.65 65.2852 177.25 65.2852V62.2852V59.2852C176.725 59.2852 176.306 59.2741 175.985 59.2552L175.809 62.25ZM177.25 62.2852V65.2852C177.251 65.2852 177.252 65.2852 177.253 65.2852C177.254 65.2852 177.255 65.2852 177.257 65.2852C177.258 65.2852 177.259 65.2852 177.26 65.2852C177.261 65.2852 177.262 65.2852 177.263 65.2852C177.264 65.2852 177.265 65.2852 177.267 65.2852C177.268 65.2852 177.269 65.2852 177.27 65.2852C177.271 65.2852 177.272 65.2852 177.273 65.2852C177.274 65.2852 177.275 65.2852 177.276 65.2852C177.278 65.2852 177.279 65.2852 177.28 65.2852C177.281 65.2852 177.282 65.2852 177.283 65.2852C177.284 65.2852 177.285 65.2852 177.286 65.2852C177.288 65.2852 177.289 65.2852 177.29 65.2852C177.291 65.2852 177.292 65.2852 177.293 65.2852C177.294 65.2852 177.295 65.2852 177.296 65.2852C177.297 65.2852 177.299 65.2852 177.3 65.2852C177.301 65.2852 177.302 65.2852 177.303 65.2852C177.304 65.2852 177.305 65.2852 177.306 65.2852C177.307 65.2852 177.309 65.2852 177.31 65.2852C177.311 65.2852 177.312 65.2852 177.313 65.2852C177.314 65.2852 177.315 65.2852 177.316 65.2852C177.318 65.2852 177.319 65.2852 177.32 65.2852C177.321 65.2852 177.322 65.2852 177.323 65.2852C177.324 65.2852 177.325 65.2852 177.326 65.2852C177.328 65.2852 177.329 65.2852 177.33 65.2852C177.331 65.2852 177.332 65.2852 177.333 65.2852C177.334 65.2852 177.335 65.2852 177.337 65.2852C177.338 65.2852 177.339 65.2852 177.34 65.2852C177.341 65.2852 177.342 65.2852 177.343 65.2852C177.344 65.2852 177.345 65.2852 177.347 65.2852C177.348 65.2852 177.349 65.2852 177.35 65.2852C177.351 65.2852 177.352 65.2852 177.353 65.2852C177.354 65.2852 177.356 65.2852 177.357 65.2852C177.358 65.2852 177.359 65.2852 177.36 65.2852C177.361 65.2852 177.362 65.2852 177.363 65.2852C177.365 65.2852 177.366 65.2852 177.367 65.2852C177.368 65.2852 177.369 65.2852 177.37 65.2852C177.371 65.2852 177.372 65.2852 177.374 65.2852C177.375 65.2852 177.376 65.2852 177.377 65.2852C177.378 65.2852 177.379 65.2852 177.38 65.2852C177.382 65.2852 177.383 65.2852 177.384 65.2852C177.385 65.2852 177.386 65.2852 177.387 65.2852C177.388 65.2852 177.389 65.2852 177.391 65.2852C177.392 65.2852 177.393 65.2852 177.394 65.2852C177.395 65.2852 177.396 65.2852 177.397 65.2852C177.398 65.2852 177.4 65.2852 177.401 65.2852C177.402 65.2852 177.403 65.2852 177.404 65.2852C177.405 65.2852 177.406 65.2852 177.408 65.2852C177.409 65.2852 177.41 65.2852 177.411 65.2852C177.412 65.2852 177.413 65.2852 177.414 65.2852C177.416 65.2852 177.417 65.2852 177.418 65.2852C177.419 65.2852 177.42 65.2852 177.421 65.2852C177.422 65.2852 177.424 65.2852 177.425 65.2852C177.426 65.2852 177.427 65.2852 177.428 65.2852C177.429 65.2852 177.43 65.2852 177.431 65.2852C177.433 65.2852 177.434 65.2852 177.435 65.2852C177.436 65.2852 177.437 65.2852 177.438 65.2852C177.439 65.2852 177.441 65.2852 177.442 65.2852C177.443 65.2852 177.444 65.2852 177.445 65.2852C177.446 65.2852 177.448 65.2852 177.449 65.2852C177.45 65.2852 177.451 65.2852 177.452 65.2852C177.453 65.2852 177.454 65.2852 177.456 65.2852C177.457 65.2852 177.458 65.2852 177.459 65.2852C177.46 65.2852 177.461 65.2852 177.462 65.2852C177.464 65.2852 177.465 65.2852 177.466 65.2852C177.467 65.2852 177.468 65.2852 177.469 65.2852C177.47 65.2852 177.472 65.2852 177.473 65.2852C177.474 65.2852 177.475 65.2852 177.476 65.2852C177.477 65.2852 177.479 65.2852 177.48 65.2852C177.481 65.2852 177.482 65.2852 177.483 65.2852C177.484 65.2852 177.485 65.2852 177.487 65.2852C177.488 65.2852 177.489 65.2852 177.49 65.2852C177.491 65.2852 177.492 65.2852 177.494 65.2852C177.495 65.2852 177.496 65.2852 177.497 65.2852C177.498 65.2852 177.499 65.2852 177.501 65.2852C177.502 65.2852 177.503 65.2852 177.504 65.2852C177.505 65.2852 177.506 65.2852 177.507 65.2852C177.509 65.2852 177.51 65.2852 177.511 65.2852C177.512 65.2852 177.513 65.2852 177.514 65.2852C177.516 65.2852 177.517 65.2852 177.518 65.2852C177.519 65.2852 177.52 65.2852 177.521 65.2852C177.523 65.2852 177.524 65.2852 177.525 65.2852C177.526 65.2852 177.527 65.2852 177.528 65.2852C177.53 65.2852 177.531 65.2852 177.532 65.2852C177.533 65.2852 177.534 65.2852 177.535 65.2852C177.537 65.2852 177.538 65.2852 177.539 65.2852C177.54 65.2852 177.541 65.2852 177.542 65.2852C177.544 65.2852 177.545 65.2852 177.546 65.2852C177.547 65.2852 177.548 65.2852 177.549 65.2852C177.551 65.2852 177.552 65.2852 177.553 65.2852C177.554 65.2852 177.555 65.2852 177.556 65.2852C177.558 65.2852 177.559 65.2852 177.56 65.2852C177.561 65.2852 177.562 65.2852 177.563 65.2852C177.565 65.2852 177.566 65.2852 177.567 65.2852C177.568 65.2852 177.569 65.2852 177.57 65.2852C177.572 65.2852 177.573 65.2852 177.574 65.2852C177.575 65.2852 177.576 65.2852 177.578 65.2852C177.579 65.2852 177.58 65.2852 177.581 65.2852C177.582 65.2852 177.583 65.2852 177.585 65.2852C177.586 65.2852 177.587 65.2852 177.588 65.2852C177.589 65.2852 177.59 65.2852 177.592 65.2852C177.593 65.2852 177.594 65.2852 177.595 65.2852C177.596 65.2852 177.598 65.2852 177.599 65.2852C177.6 65.2852 177.601 65.2852 177.602 65.2852C177.603 65.2852 177.605 65.2852 177.606 65.2852C177.607 65.2852 177.608 65.2852 177.609 65.2852C177.611 65.2852 177.612 65.2852 177.613 65.2852C177.614 65.2852 177.615 65.2852 177.616 65.2852C177.618 65.2852 177.619 65.2852 177.62 65.2852C177.621 65.2852 177.622 65.2852 177.624 65.2852C177.625 65.2852 177.626 65.2852 177.627 65.2852C177.628 65.2852 177.63 65.2852 177.631 65.2852C177.632 65.2852 177.633 65.2852 177.634 65.2852C177.635 65.2852 177.637 65.2852 177.638 65.2852C177.639 65.2852 177.64 65.2852 177.641 65.2852C177.643 65.2852 177.644 65.2852 177.645 65.2852C177.646 65.2852 177.647 65.2852 177.649 65.2852C177.65 65.2852 177.651 65.2852 177.652 65.2852C177.653 65.2852 177.655 65.2852 177.656 65.2852C177.657 65.2852 177.658 65.2852 177.659 65.2852C177.66 65.2852 177.662 65.2852 177.663 65.2852C177.664 65.2852 177.665 65.2852 177.666 65.2852C177.668 65.2852 177.669 65.2852 177.67 65.2852C177.671 65.2852 177.672 65.2852 177.674 65.2852C177.675 65.2852 177.676 65.2852 177.677 65.2852C177.678 65.2852 177.68 65.2852 177.681 65.2852C177.682 65.2852 177.683 65.2852 177.684 65.2852C177.686 65.2852 177.687 65.2852 177.688 65.2852C177.689 65.2852 177.69 65.2852 177.692 65.2852C177.693 65.2852 177.694 65.2852 177.695 65.2852C177.696 65.2852 177.698 65.2852 177.699 65.2852C177.7 65.2852 177.701 65.2852 177.702 65.2852C177.704 65.2852 177.705 65.2852 177.706 65.2852C177.707 65.2852 177.708 65.2852 177.71 65.2852C177.711 65.2852 177.712 65.2852 177.713 65.2852C177.715 65.2852 177.716 65.2852 177.717 65.2852C177.718 65.2852 177.719 65.2852 177.721 65.2852C177.722 65.2852 177.723 65.2852 177.724 65.2852C177.725 65.2852 177.727 65.2852 177.728 65.2852C177.729 65.2852 177.73 65.2852 177.731 65.2852C177.733 65.2852 177.734 65.2852 177.735 65.2852C177.736 65.2852 177.738 65.2852 177.739 65.2852C177.74 65.2852 177.741 65.2852 177.742 65.2852C177.744 65.2852 177.745 65.2852 177.746 65.2852C177.747 65.2852 177.748 65.2852 177.75 65.2852C177.751 65.2852 177.752 65.2852 177.753 65.2852C177.754 65.2852 177.756 65.2852 177.757 65.2852C177.758 65.2852 177.759 65.2852 177.761 65.2852C177.762 65.2852 177.763 65.2852 177.764 65.2852C177.765 65.2852 177.767 65.2852 177.768 65.2852C177.769 65.2852 177.77 65.2852 177.772 65.2852C177.773 65.2852 177.774 65.2852 177.775 65.2852C177.776 65.2852 177.778 65.2852 177.779 65.2852C177.78 65.2852 177.781 65.2852 177.783 65.2852C177.784 65.2852 177.785 65.2852 177.786 65.2852C177.787 65.2852 177.789 65.2852 177.79 65.2852C177.791 65.2852 177.792 65.2852 177.794 65.2852C177.795 65.2852 177.796 65.2852 177.797 65.2852C177.798 65.2852 177.8 65.2852 177.801 65.2852C177.802 65.2852 177.803 65.2852 177.805 65.2852C177.806 65.2852 177.807 65.2852 177.808 65.2852C177.809 65.2852 177.811 65.2852 177.812 65.2852C177.813 65.2852 177.814 65.2852 177.816 65.2852C177.817 65.2852 177.818 65.2852 177.819 65.2852C177.821 65.2852 177.822 65.2852 177.823 65.2852C177.824 65.2852 177.825 65.2852 177.827 65.2852C177.828 65.2852 177.829 65.2852 177.83 65.2852C177.832 65.2852 177.833 65.2852 177.834 65.2852C177.835 65.2852 177.837 65.2852 177.838 65.2852C177.839 65.2852 177.84 65.2852 177.841 65.2852C177.843 65.2852 177.844 65.2852 177.845 65.2852C177.846 65.2852 177.848 65.2852 177.849 65.2852C177.85 65.2852 177.851 65.2852 177.853 65.2852C177.854 65.2852 177.855 65.2852 177.856 65.2852C177.858 65.2852 177.859 65.2852 177.86 65.2852C177.861 65.2852 177.863 65.2852 177.864 65.2852C177.865 65.2852 177.866 65.2852 177.867 65.2852C177.869 65.2852 177.87 65.2852 177.871 65.2852C177.872 65.2852 177.874 65.2852 177.875 65.2852C177.876 65.2852 177.877 65.2852 177.879 65.2852C177.88 65.2852 177.881 65.2852 177.882 65.2852C177.884 65.2852 177.885 65.2852 177.886 65.2852C177.887 65.2852 177.889 65.2852 177.89 65.2852C177.891 65.2852 177.892 65.2852 177.894 65.2852C177.895 65.2852 177.896 65.2852 177.897 65.2852C177.899 65.2852 177.9 65.2852 177.901 65.2852C177.902 65.2852 177.904 65.2852 177.905 65.2852C177.906 65.2852 177.907 65.2852 177.909 65.2852C177.91 65.2852 177.911 65.2852 177.912 65.2852C177.914 65.2852 177.915 65.2852 177.916 65.2852C177.917 65.2852 177.919 65.2852 177.92 65.2852C177.921 65.2852 177.922 65.2852 177.924 65.2852C177.925 65.2852 177.926 65.2852 177.927 65.2852C177.929 65.2852 177.93 65.2852 177.931 65.2852C177.932 65.2852 177.934 65.2852 177.935 65.2852C177.936 65.2852 177.937 65.2852 177.939 65.2852C177.94 65.2852 177.941 65.2852 177.942 65.2852C177.944 65.2852 177.945 65.2852 177.946 65.2852C177.947 65.2852 177.949 65.2852 177.95 65.2852C177.951 65.2852 177.952 65.2852 177.954 65.2852C177.955 65.2852 177.956 65.2852 177.957 65.2852C177.959 65.2852 177.96 65.2852 177.961 65.2852C177.962 65.2852 177.964 65.2852 177.965 65.2852C177.966 65.2852 177.968 65.2852 177.969 65.2852C177.97 65.2852 177.971 65.2852 177.973 65.2852C177.974 65.2852 177.975 65.2852 177.976 65.2852C177.978 65.2852 177.979 65.2852 177.98 65.2852C177.981 65.2852 177.983 65.2852 177.984 65.2852C177.985 65.2852 177.987 65.2852 177.988 65.2852C177.989 65.2852 177.99 65.2852 177.992 65.2852C177.993 65.2852 177.994 65.2852 177.995 65.2852C177.997 65.2852 177.998 65.2852 177.999 65.2852C178 65.2852 178.002 65.2852 178.003 65.2852C178.004 65.2852 178.006 65.2852 178.007 65.2852C178.008 65.2852 178.009 65.2852 178.011 65.2852C178.012 65.2852 178.013 65.2852 178.014 65.2852C178.016 65.2852 178.017 65.2852 178.018 65.2852C178.02 65.2852 178.021 65.2852 178.022 65.2852C178.023 65.2852 178.025 65.2852 178.026 65.2852C178.027 65.2852 178.028 65.2852 178.03 65.2852C178.031 65.2852 178.032 65.2852 178.034 65.2852C178.035 65.2852 178.036 65.2852 178.037 65.2852C178.039 65.2852 178.04 65.2852 178.041 65.2852C178.042 65.2852 178.044 65.2852 178.045 65.2852C178.046 65.2852 178.048 65.2852 178.049 65.2852C178.05 65.2852 178.051 65.2852 178.053 65.2852C178.054 65.2852 178.055 65.2852 178.057 65.2852C178.058 65.2852 178.059 65.2852 178.06 65.2852C178.062 65.2852 178.063 65.2852 178.064 65.2852C178.065 65.2852 178.067 65.2852 178.068 65.2852C178.069 65.2852 178.071 65.2852 178.072 65.2852C178.073 65.2852 178.074 65.2852 178.076 65.2852C178.077 65.2852 178.078 65.2852 178.08 65.2852C178.081 65.2852 178.082 65.2852 178.083 65.2852C178.085 65.2852 178.086 65.2852 178.087 65.2852C178.089 65.2852 178.09 65.2852 178.091 65.2852C178.092 65.2852 178.094 65.2852 178.095 65.2852C178.096 65.2852 178.098 65.2852 178.099 65.2852C178.1 65.2852 178.102 65.2852 178.103 65.2852C178.104 65.2852 178.105 65.2852 178.107 65.2852C178.108 65.2852 178.109 65.2852 178.111 65.2852C178.112 65.2852 178.113 65.2852 178.114 65.2852C178.116 65.2852 178.117 65.2852 178.118 65.2852C178.12 65.2852 178.121 65.2852 178.122 65.2852C178.123 65.2852 178.125 65.2852 178.126 65.2852C178.127 65.2852 178.129 65.2852 178.13 65.2852C178.131 65.2852 178.133 65.2852 178.134 65.2852C178.135 65.2852 178.136 65.2852 178.138 65.2852C178.139 65.2852 178.14 65.2852 178.142 65.2852C178.143 65.2852 178.144 65.2852 178.146 65.2852C178.147 65.2852 178.148 65.2852 178.149 65.2852C178.151 65.2852 178.152 65.2852 178.153 65.2852C178.155 65.2852 178.156 65.2852 178.157 65.2852C178.159 65.2852 178.16 65.2852 178.161 65.2852C178.162 65.2852 178.164 65.2852 178.165 65.2852C178.166 65.2852 178.168 65.2852 178.169 65.2852C178.17 65.2852 178.172 65.2852 178.173 65.2852C178.174 65.2852 178.175 65.2852 178.177 65.2852C178.178 65.2852 178.179 65.2852 178.181 65.2852C178.182 65.2852 178.183 65.2852 178.185 65.2852C178.186 65.2852 178.187 65.2852 178.189 65.2852C178.19 65.2852 178.191 65.2852 178.192 65.2852C178.194 65.2852 178.195 65.2852 178.196 65.2852C178.198 65.2852 178.199 65.2852 178.2 65.2852C178.202 65.2852 178.203 65.2852 178.204 65.2852C178.206 65.2852 178.207 65.2852 178.208 65.2852C178.209 65.2852 178.211 65.2852 178.212 65.2852C178.213 65.2852 178.215 65.2852 178.216 65.2852C178.217 65.2852 178.219 65.2852 178.22 65.2852C178.221 65.2852 178.223 65.2852 178.224 65.2852C178.225 65.2852 178.227 65.2852 178.228 65.2852C178.229 65.2852 178.231 65.2852 178.232 65.2852C178.233 65.2852 178.234 65.2852 178.236 65.2852C178.237 65.2852 178.238 65.2852 178.24 65.2852C178.241 65.2852 178.242 65.2852 178.244 65.2852C178.245 65.2852 178.246 65.2852 178.248 65.2852C178.249 65.2852 178.25 65.2852 178.252 65.2852C178.253 65.2852 178.254 65.2852 178.256 65.2852C178.257 65.2852 178.258 65.2852 178.26 65.2852C178.261 65.2852 178.262 65.2852 178.264 65.2852C178.265 65.2852 178.266 65.2852 178.267 65.2852C178.269 65.2852 178.27 65.2852 178.271 65.2852C178.273 65.2852 178.274 65.2852 178.275 65.2852C178.277 65.2852 178.278 65.2852 178.279 65.2852C178.281 65.2852 178.282 65.2852 178.283 65.2852C178.285 65.2852 178.286 65.2852 178.287 65.2852C178.289 65.2852 178.29 65.2852 178.291 65.2852C178.293 65.2852 178.294 65.2852 178.295 65.2852C178.297 65.2852 178.298 65.2852 178.299 65.2852C178.301 65.2852 178.302 65.2852 178.303 65.2852C178.305 65.2852 178.306 65.2852 178.307 65.2852C178.309 65.2852 178.31 65.2852 178.311 65.2852C178.313 65.2852 178.314 65.2852 178.315 65.2852C178.317 65.2852 178.318 65.2852 178.319 65.2852C178.321 65.2852 178.322 65.2852 178.323 65.2852C178.325 65.2852 178.326 65.2852 178.327 65.2852C178.329 65.2852 178.33 65.2852 178.331 65.2852C178.333 65.2852 178.334 65.2852 178.335 65.2852C178.337 65.2852 178.338 65.2852 178.339 65.2852C178.341 65.2852 178.342 65.2852 178.343 65.2852C178.345 65.2852 178.346 65.2852 178.347 65.2852C178.349 65.2852 178.35 65.2852 178.351 65.2852C178.353 65.2852 178.354 65.2852 178.355 65.2852C178.357 65.2852 178.358 65.2852 178.359 65.2852C178.361 65.2852 178.362 65.2852 178.363 65.2852C178.365 65.2852 178.366 65.2852 178.368 65.2852C178.369 65.2852 178.37 65.2852 178.372 65.2852C178.373 65.2852 178.374 65.2852 178.376 65.2852C178.377 65.2852 178.378 65.2852 178.38 65.2852C178.381 65.2852 178.382 65.2852 178.384 65.2852C178.385 65.2852 178.386 65.2852 178.388 65.2852C178.389 65.2852 178.39 65.2852 178.392 65.2852C178.393 65.2852 178.394 65.2852 178.396 65.2852C178.397 65.2852 178.399 65.2852 178.4 65.2852C178.401 65.2852 178.403 65.2852 178.404 65.2852C178.405 65.2852 178.407 65.2852 178.408 65.2852C178.409 65.2852 178.411 65.2852 178.412 65.2852C178.413 65.2852 178.415 65.2852 178.416 65.2852C178.417 65.2852 178.419 65.2852 178.42 65.2852C178.422 65.2852 178.423 65.2852 178.424 65.2852C178.426 65.2852 178.427 65.2852 178.428 65.2852C178.43 65.2852 178.431 65.2852 178.432 65.2852C178.434 65.2852 178.435 65.2852 178.436 65.2852C178.438 65.2852 178.439 65.2852 178.44 65.2852C178.442 65.2852 178.443 65.2852 178.445 65.2852C178.446 65.2852 178.447 65.2852 178.449 65.2852C178.45 65.2852 178.451 65.2852 178.453 65.2852C178.454 65.2852 178.455 65.2852 178.457 65.2852C178.458 65.2852 178.46 65.2852 178.461 65.2852C178.462 65.2852 178.464 65.2852 178.465 65.2852C178.466 65.2852 178.468 65.2852 178.469 65.2852C178.47 65.2852 178.472 65.2852 178.473 65.2852C178.475 65.2852 178.476 65.2852 178.477 65.2852C178.479 65.2852 178.48 65.2852 178.481 65.2852C178.483 65.2852 178.484 65.2852 178.485 65.2852C178.487 65.2852 178.488 65.2852 178.49 65.2852C178.491 65.2852 178.492 65.2852 178.494 65.2852C178.495 65.2852 178.496 65.2852 178.498 65.2852C178.499 65.2852 178.501 65.2852 178.502 65.2852C178.503 65.2852 178.505 65.2852 178.506 65.2852C178.507 65.2852 178.509 65.2852 178.51 65.2852C178.512 65.2852 178.513 65.2852 178.514 65.2852C178.516 65.2852 178.517 65.2852 178.518 65.2852C178.52 65.2852 178.521 65.2852 178.522 65.2852C178.524 65.2852 178.525 65.2852 178.527 65.2852C178.528 65.2852 178.529 65.2852 178.531 65.2852C178.532 65.2852 178.534 65.2852 178.535 65.2852C178.536 65.2852 178.538 65.2852 178.539 65.2852C178.54 65.2852 178.542 65.2852 178.543 65.2852C178.545 65.2852 178.546 65.2852 178.547 65.2852C178.549 65.2852 178.55 65.2852 178.551 65.2852C178.553 65.2852 178.554 65.2852 178.556 65.2852C178.557 65.2852 178.558 65.2852 178.56 65.2852C178.561 65.2852 178.562 65.2852 178.564 65.2852C178.565 65.2852 178.567 65.2852 178.568 65.2852C178.569 65.2852 178.571 65.2852 178.572 65.2852C178.574 65.2852 178.575 65.2852 178.576 65.2852C178.578 65.2852 178.579 65.2852 178.58 65.2852C178.582 65.2852 178.583 65.2852 178.585 65.2852C178.586 65.2852 178.587 65.2852 178.589 65.2852C178.59 65.2852 178.592 65.2852 178.593 65.2852C178.594 65.2852 178.596 65.2852 178.597 65.2852C178.599 65.2852 178.6 65.2852 178.601 65.2852C178.603 65.2852 178.604 65.2852 178.605 65.2852C178.607 65.2852 178.608 65.2852 178.61 65.2852C178.611 65.2852 178.612 65.2852 178.614 65.2852C178.615 65.2852 178.617 65.2852 178.618 65.2852C178.619 65.2852 178.621 65.2852 178.622 65.2852C178.624 65.2852 178.625 65.2852 178.626 65.2852C178.628 65.2852 178.629 65.2852 178.631 65.2852C178.632 65.2852 178.633 65.2852 178.635 65.2852C178.636 65.2852 178.638 65.2852 178.639 65.2852C178.64 65.2852 178.642 65.2852 178.643 65.2852C178.645 65.2852 178.646 65.2852 178.647 65.2852C178.649 65.2852 178.65 65.2852 178.651 65.2852C178.653 65.2852 178.654 65.2852 178.656 65.2852C178.657 65.2852 178.658 65.2852 178.66 65.2852C178.661 65.2852 178.663 65.2852 178.664 65.2852C178.666 65.2852 178.667 65.2852 178.668 65.2852C178.67 65.2852 178.671 65.2852 178.673 65.2852C178.674 65.2852 178.675 65.2852 178.677 65.2852C178.678 65.2852 178.68 65.2852 178.681 65.2852C178.682 65.2852 178.684 65.2852 178.685 65.2852C178.687 65.2852 178.688 65.2852 178.689 65.2852C178.691 65.2852 178.692 65.2852 178.694 65.2852C178.695 65.2852 178.696 65.2852 178.698 65.2852C178.699 65.2852 178.701 65.2852 178.702 65.2852C178.703 65.2852 178.705 65.2852 178.706 65.2852C178.708 65.2852 178.709 65.2852 178.711 65.2852C178.712 65.2852 178.713 65.2852 178.715 65.2852C178.716 65.2852 178.718 65.2852 178.719 65.2852C178.72 65.2852 178.722 65.2852 178.723 65.2852C178.725 65.2852 178.726 65.2852 178.727 65.2852C178.729 65.2852 178.73 65.2852 178.732 65.2852C178.733 65.2852 178.735 65.2852 178.736 65.2852C178.737 65.2852 178.739 65.2852 178.74 65.2852C178.742 65.2852 178.743 65.2852 178.744 65.2852C178.746 65.2852 178.747 65.2852 178.749 65.2852C178.75 65.2852 178.752 65.2852 178.753 65.2852C178.754 65.2852 178.756 65.2852 178.757 65.2852C178.759 65.2852 178.76 65.2852 178.761 65.2852C178.763 65.2852 178.764 65.2852 178.766 65.2852C178.767 65.2852 178.769 65.2852 178.77 65.2852C178.771 65.2852 178.773 65.2852 178.774 65.2852C178.776 65.2852 178.777 65.2852 178.779 65.2852C178.78 65.2852 178.781 65.2852 178.783 65.2852C178.784 65.2852 178.786 65.2852 178.787 65.2852C178.789 65.2852 178.79 65.2852 178.791 65.2852C178.793 65.2852 178.794 65.2852 178.796 65.2852C178.797 65.2852 178.799 65.2852 178.8 65.2852C178.801 65.2852 178.803 65.2852 178.804 65.2852C178.806 65.2852 178.807 65.2852 178.809 65.2852C178.81 65.2852 178.811 65.2852 178.813 65.2852C178.814 65.2852 178.816 65.2852 178.817 65.2852C178.819 65.2852 178.82 65.2852 178.821 65.2852C178.823 65.2852 178.824 65.2852 178.826 65.2852C178.827 65.2852 178.829 65.2852 178.83 65.2852C178.831 65.2852 178.833 65.2852 178.834 65.2852C178.836 65.2852 178.837 65.2852 178.839 65.2852C178.84 65.2852 178.841 65.2852 178.843 65.2852C178.844 65.2852 178.846 65.2852 178.847 65.2852C178.849 65.2852 178.85 65.2852 178.852 65.2852C178.853 65.2852 178.854 65.2852 178.856 65.2852C178.857 65.2852 178.859 65.2852 178.86 65.2852C178.862 65.2852 178.863 65.2852 178.864 65.2852C178.866 65.2852 178.867 65.2852 178.869 65.2852C178.87 65.2852 178.872 65.2852 178.873 65.2852C178.875 65.2852 178.876 65.2852 178.877 65.2852C178.879 65.2852 178.88 65.2852 178.882 65.2852C178.883 65.2852 178.885 65.2852 178.886 65.2852C178.888 65.2852 178.889 65.2852 178.89 65.2852C178.892 65.2852 178.893 65.2852 178.895 65.2852C178.896 65.2852 178.898 65.2852 178.899 65.2852C178.901 65.2852 178.902 65.2852 178.903 65.2852C178.905 65.2852 178.906 65.2852 178.908 65.2852C178.909 65.2852 178.911 65.2852 178.912 65.2852C178.914 65.2852 178.915 65.2852 178.916 65.2852C178.918 65.2852 178.919 65.2852 178.921 65.2852C178.922 65.2852 178.924 65.2852 178.925 65.2852C178.927 65.2852 178.928 65.2852 178.93 65.2852C178.931 65.2852 178.932 65.2852 178.934 65.2852C178.935 65.2852 178.937 65.2852 178.938 65.2852C178.94 65.2852 178.941 65.2852 178.943 65.2852C178.944 65.2852 178.945 65.2852 178.947 65.2852C178.948 65.2852 178.95 65.2852 178.951 65.2852C178.953 65.2852 178.954 65.2852 178.956 65.2852C178.957 65.2852 178.959 65.2852 178.96 65.2852C178.962 65.2852 178.963 65.2852 178.964 65.2852C178.966 65.2852 178.967 65.2852 178.969 65.2852C178.97 65.2852 178.972 65.2852 178.973 65.2852C178.975 65.2852 178.976 65.2852 178.978 65.2852C178.979 65.2852 178.98 65.2852 178.982 65.2852C178.983 65.2852 178.985 65.2852 178.986 65.2852C178.988 65.2852 178.989 65.2852 178.991 65.2852C178.992 65.2852 178.994 65.2852 178.995 65.2852C178.997 65.2852 178.998 65.2852 179 65.2852C179.001 65.2852 179.002 65.2852 179.004 65.2852C179.005 65.2852 179.007 65.2852 179.008 65.2852C179.01 65.2852 179.011 65.2852 179.013 65.2852C179.014 65.2852 179.016 65.2852 179.017 65.2852C179.019 65.2852 179.02 65.2852 179.022 65.2852C179.023 65.2852 179.024 65.2852 179.026 65.2852C179.027 65.2852 179.029 65.2852 179.03 65.2852C179.032 65.2852 179.033 65.2852 179.035 65.2852C179.036 65.2852 179.038 65.2852 179.039 65.2852C179.041 65.2852 179.042 65.2852 179.044 65.2852C179.045 65.2852 179.047 65.2852 179.048 65.2852C179.049 65.2852 179.051 65.2852 179.052 65.2852C179.054 65.2852 179.055 65.2852 179.057 65.2852C179.058 65.2852 179.06 65.2852 179.061 65.2852C179.063 65.2852 179.064 65.2852 179.066 65.2852C179.067 65.2852 179.069 65.2852 179.07 65.2852C179.072 65.2852 179.073 65.2852 179.075 65.2852C179.076 65.2852 179.078 65.2852 179.079 65.2852C179.08 65.2852 179.082 65.2852 179.083 65.2852C179.085 65.2852 179.086 65.2852 179.088 65.2852C179.089 65.2852 179.091 65.2852 179.092 65.2852C179.094 65.2852 179.095 65.2852 179.097 65.2852C179.098 65.2852 179.1 65.2852 179.101 65.2852C179.103 65.2852 179.104 65.2852 179.106 65.2852C179.107 65.2852 179.109 65.2852 179.11 65.2852C179.112 65.2852 179.113 65.2852 179.115 65.2852C179.116 65.2852 179.118 65.2852 179.119 65.2852C179.121 65.2852 179.122 65.2852 179.123 65.2852C179.125 65.2852 179.126 65.2852 179.128 65.2852C179.129 65.2852 179.131 65.2852 179.132 65.2852C179.134 65.2852 179.135 65.2852 179.137 65.2852C179.138 65.2852 179.14 65.2852 179.141 65.2852C179.143 65.2852 179.144 65.2852 179.146 65.2852C179.147 65.2852 179.149 65.2852 179.15 65.2852C179.152 65.2852 179.153 65.2852 179.155 65.2852C179.156 65.2852 179.158 65.2852 179.159 65.2852C179.161 65.2852 179.162 65.2852 179.164 65.2852C179.165 65.2852 179.167 65.2852 179.168 65.2852C179.17 65.2852 179.171 65.2852 179.173 65.2852C179.174 65.2852 179.176 65.2852 179.177 65.2852C179.179 65.2852 179.18 65.2852 179.182 65.2852C179.183 65.2852 179.185 65.2852 179.186 65.2852C179.188 65.2852 179.189 65.2852 179.191 65.2852C179.192 65.2852 179.194 65.2852 179.195 65.2852C179.197 65.2852 179.198 65.2852 179.2 65.2852C179.201 65.2852 179.203 65.2852 179.204 65.2852C179.206 65.2852 179.207 65.2852 179.209 65.2852C179.21 65.2852 179.212 65.2852 179.213 65.2852C179.215 65.2852 179.216 65.2852 179.218 65.2852C179.219 65.2852 179.221 65.2852 179.222 65.2852C179.224 65.2852 179.225 65.2852 179.227 65.2852C179.228 65.2852 179.23 65.2852 179.231 65.2852C179.233 65.2852 179.234 65.2852 179.236 65.2852C179.237 65.2852 179.239 65.2852 179.24 65.2852C179.242 65.2852 179.243 65.2852 179.245 65.2852C179.246 65.2852 179.248 65.2852 179.249 65.2852C179.251 65.2852 179.252 65.2852 179.254 65.2852V62.2852V59.2852C179.252 59.2852 179.251 59.2852 179.249 59.2852C179.248 59.2852 179.246 59.2852 179.245 59.2852C179.243 59.2852 179.242 59.2852 179.24 59.2852C179.239 59.2852 179.237 59.2852 179.236 59.2852C179.234 59.2852 179.233 59.2852 179.231 59.2852C179.23 59.2852 179.228 59.2852 179.227 59.2852C179.225 59.2852 179.224 59.2852 179.222 59.2852C179.221 59.2852 179.219 59.2852 179.218 59.2852C179.216 59.2852 179.215 59.2852 179.213 59.2852C179.212 59.2852 179.21 59.2852 179.209 59.2852C179.207 59.2852 179.206 59.2852 179.204 59.2852C179.203 59.2852 179.201 59.2852 179.2 59.2852C179.198 59.2852 179.197 59.2852 179.195 59.2852C179.194 59.2852 179.192 59.2852 179.191 59.2852C179.189 59.2852 179.188 59.2852 179.186 59.2852C179.185 59.2852 179.183 59.2852 179.182 59.2852C179.18 59.2852 179.179 59.2852 179.177 59.2852C179.176 59.2852 179.174 59.2852 179.173 59.2852C179.171 59.2852 179.17 59.2852 179.168 59.2852C179.167 59.2852 179.165 59.2852 179.164 59.2852C179.162 59.2852 179.161 59.2852 179.159 59.2852C179.158 59.2852 179.156 59.2852 179.155 59.2852C179.153 59.2852 179.152 59.2852 179.15 59.2852C179.149 59.2852 179.147 59.2852 179.146 59.2852C179.144 59.2852 179.143 59.2852 179.141 59.2852C179.14 59.2852 179.138 59.2852 179.137 59.2852C179.135 59.2852 179.134 59.2852 179.132 59.2852C179.131 59.2852 179.129 59.2852 179.128 59.2852C179.126 59.2852 179.125 59.2852 179.123 59.2852C179.122 59.2852 179.121 59.2852 179.119 59.2852C179.118 59.2852 179.116 59.2852 179.115 59.2852C179.113 59.2852 179.112 59.2852 179.11 59.2852C179.109 59.2852 179.107 59.2852 179.106 59.2852C179.104 59.2852 179.103 59.2852 179.101 59.2852C179.1 59.2852 179.098 59.2852 179.097 59.2852C179.095 59.2852 179.094 59.2852 179.092 59.2852C179.091 59.2852 179.089 59.2852 179.088 59.2852C179.086 59.2852 179.085 59.2852 179.083 59.2852C179.082 59.2852 179.08 59.2852 179.079 59.2852C179.078 59.2852 179.076 59.2852 179.075 59.2852C179.073 59.2852 179.072 59.2852 179.07 59.2852C179.069 59.2852 179.067 59.2852 179.066 59.2852C179.064 59.2852 179.063 59.2852 179.061 59.2852C179.06 59.2852 179.058 59.2852 179.057 59.2852C179.055 59.2852 179.054 59.2852 179.052 59.2852C179.051 59.2852 179.049 59.2852 179.048 59.2852C179.047 59.2852 179.045 59.2852 179.044 59.2852C179.042 59.2852 179.041 59.2852 179.039 59.2852C179.038 59.2852 179.036 59.2852 179.035 59.2852C179.033 59.2852 179.032 59.2852 179.03 59.2852C179.029 59.2852 179.027 59.2852 179.026 59.2852C179.024 59.2852 179.023 59.2852 179.022 59.2852C179.02 59.2852 179.019 59.2852 179.017 59.2852C179.016 59.2852 179.014 59.2852 179.013 59.2852C179.011 59.2852 179.01 59.2852 179.008 59.2852C179.007 59.2852 179.005 59.2852 179.004 59.2852C179.002 59.2852 179.001 59.2852 179 59.2852C178.998 59.2852 178.997 59.2852 178.995 59.2852C178.994 59.2852 178.992 59.2852 178.991 59.2852C178.989 59.2852 178.988 59.2852 178.986 59.2852C178.985 59.2852 178.983 59.2852 178.982 59.2852C178.98 59.2852 178.979 59.2852 178.978 59.2852C178.976 59.2852 178.975 59.2852 178.973 59.2852C178.972 59.2852 178.97 59.2852 178.969 59.2852C178.967 59.2852 178.966 59.2852 178.964 59.2852C178.963 59.2852 178.962 59.2852 178.96 59.2852C178.959 59.2852 178.957 59.2852 178.956 59.2852C178.954 59.2852 178.953 59.2852 178.951 59.2852C178.95 59.2852 178.948 59.2852 178.947 59.2852C178.945 59.2852 178.944 59.2852 178.943 59.2852C178.941 59.2852 178.94 59.2852 178.938 59.2852C178.937 59.2852 178.935 59.2852 178.934 59.2852C178.932 59.2852 178.931 59.2852 178.93 59.2852C178.928 59.2852 178.927 59.2852 178.925 59.2852C178.924 59.2852 178.922 59.2852 178.921 59.2852C178.919 59.2852 178.918 59.2852 178.916 59.2852C178.915 59.2852 178.914 59.2852 178.912 59.2852C178.911 59.2852 178.909 59.2852 178.908 59.2852C178.906 59.2852 178.905 59.2852 178.903 59.2852C178.902 59.2852 178.901 59.2852 178.899 59.2852C178.898 59.2852 178.896 59.2852 178.895 59.2852C178.893 59.2852 178.892 59.2852 178.89 59.2852C178.889 59.2852 178.888 59.2852 178.886 59.2852C178.885 59.2852 178.883 59.2852 178.882 59.2852C178.88 59.2852 178.879 59.2852 178.877 59.2852C178.876 59.2852 178.875 59.2852 178.873 59.2852C178.872 59.2852 178.87 59.2852 178.869 59.2852C178.867 59.2852 178.866 59.2852 178.864 59.2852C178.863 59.2852 178.862 59.2852 178.86 59.2852C178.859 59.2852 178.857 59.2852 178.856 59.2852C178.854 59.2852 178.853 59.2852 178.852 59.2852C178.85 59.2852 178.849 59.2852 178.847 59.2852C178.846 59.2852 178.844 59.2852 178.843 59.2852C178.841 59.2852 178.84 59.2852 178.839 59.2852C178.837 59.2852 178.836 59.2852 178.834 59.2852C178.833 59.2852 178.831 59.2852 178.83 59.2852C178.829 59.2852 178.827 59.2852 178.826 59.2852C178.824 59.2852 178.823 59.2852 178.821 59.2852C178.82 59.2852 178.819 59.2852 178.817 59.2852C178.816 59.2852 178.814 59.2852 178.813 59.2852C178.811 59.2852 178.81 59.2852 178.809 59.2852C178.807 59.2852 178.806 59.2852 178.804 59.2852C178.803 59.2852 178.801 59.2852 178.8 59.2852C178.799 59.2852 178.797 59.2852 178.796 59.2852C178.794 59.2852 178.793 59.2852 178.791 59.2852C178.79 59.2852 178.789 59.2852 178.787 59.2852C178.786 59.2852 178.784 59.2852 178.783 59.2852C178.781 59.2852 178.78 59.2852 178.779 59.2852C178.777 59.2852 178.776 59.2852 178.774 59.2852C178.773 59.2852 178.771 59.2852 178.77 59.2852C178.769 59.2852 178.767 59.2852 178.766 59.2852C178.764 59.2852 178.763 59.2852 178.761 59.2852C178.76 59.2852 178.759 59.2852 178.757 59.2852C178.756 59.2852 178.754 59.2852 178.753 59.2852C178.752 59.2852 178.75 59.2852 178.749 59.2852C178.747 59.2852 178.746 59.2852 178.744 59.2852C178.743 59.2852 178.742 59.2852 178.74 59.2852C178.739 59.2852 178.737 59.2852 178.736 59.2852C178.735 59.2852 178.733 59.2852 178.732 59.2852C178.73 59.2852 178.729 59.2852 178.727 59.2852C178.726 59.2852 178.725 59.2852 178.723 59.2852C178.722 59.2852 178.72 59.2852 178.719 59.2852C178.718 59.2852 178.716 59.2852 178.715 59.2852C178.713 59.2852 178.712 59.2852 178.711 59.2852C178.709 59.2852 178.708 59.2852 178.706 59.2852C178.705 59.2852 178.703 59.2852 178.702 59.2852C178.701 59.2852 178.699 59.2852 178.698 59.2852C178.696 59.2852 178.695 59.2852 178.694 59.2852C178.692 59.2852 178.691 59.2852 178.689 59.2852C178.688 59.2852 178.687 59.2852 178.685 59.2852C178.684 59.2852 178.682 59.2852 178.681 59.2852C178.68 59.2852 178.678 59.2852 178.677 59.2852C178.675 59.2852 178.674 59.2852 178.673 59.2852C178.671 59.2852 178.67 59.2852 178.668 59.2852C178.667 59.2852 178.666 59.2852 178.664 59.2852C178.663 59.2852 178.661 59.2852 178.66 59.2852C178.658 59.2852 178.657 59.2852 178.656 59.2852C178.654 59.2852 178.653 59.2852 178.651 59.2852C178.65 59.2852 178.649 59.2852 178.647 59.2852C178.646 59.2852 178.645 59.2852 178.643 59.2852C178.642 59.2852 178.64 59.2852 178.639 59.2852C178.638 59.2852 178.636 59.2852 178.635 59.2852C178.633 59.2852 178.632 59.2852 178.631 59.2852C178.629 59.2852 178.628 59.2852 178.626 59.2852C178.625 59.2852 178.624 59.2852 178.622 59.2852C178.621 59.2852 178.619 59.2852 178.618 59.2852C178.617 59.2852 178.615 59.2852 178.614 59.2852C178.612 59.2852 178.611 59.2852 178.61 59.2852C178.608 59.2852 178.607 59.2852 178.605 59.2852C178.604 59.2852 178.603 59.2852 178.601 59.2852C178.6 59.2852 178.599 59.2852 178.597 59.2852C178.596 59.2852 178.594 59.2852 178.593 59.2852C178.592 59.2852 178.59 59.2852 178.589 59.2852C178.587 59.2852 178.586 59.2852 178.585 59.2852C178.583 59.2852 178.582 59.2852 178.58 59.2852C178.579 59.2852 178.578 59.2852 178.576 59.2852C178.575 59.2852 178.574 59.2852 178.572 59.2852C178.571 59.2852 178.569 59.2852 178.568 59.2852C178.567 59.2852 178.565 59.2852 178.564 59.2852C178.562 59.2852 178.561 59.2852 178.56 59.2852C178.558 59.2852 178.557 59.2852 178.556 59.2852C178.554 59.2852 178.553 59.2852 178.551 59.2852C178.55 59.2852 178.549 59.2852 178.547 59.2852C178.546 59.2852 178.545 59.2852 178.543 59.2852C178.542 59.2852 178.54 59.2852 178.539 59.2852C178.538 59.2852 178.536 59.2852 178.535 59.2852C178.534 59.2852 178.532 59.2852 178.531 59.2852C178.529 59.2852 178.528 59.2852 178.527 59.2852C178.525 59.2852 178.524 59.2852 178.522 59.2852C178.521 59.2852 178.52 59.2852 178.518 59.2852C178.517 59.2852 178.516 59.2852 178.514 59.2852C178.513 59.2852 178.512 59.2852 178.51 59.2852C178.509 59.2852 178.507 59.2852 178.506 59.2852C178.505 59.2852 178.503 59.2852 178.502 59.2852C178.501 59.2852 178.499 59.2852 178.498 59.2852C178.496 59.2852 178.495 59.2852 178.494 59.2852C178.492 59.2852 178.491 59.2852 178.49 59.2852C178.488 59.2852 178.487 59.2852 178.485 59.2852C178.484 59.2852 178.483 59.2852 178.481 59.2852C178.48 59.2852 178.479 59.2852 178.477 59.2852C178.476 59.2852 178.475 59.2852 178.473 59.2852C178.472 59.2852 178.47 59.2852 178.469 59.2852C178.468 59.2852 178.466 59.2852 178.465 59.2852C178.464 59.2852 178.462 59.2852 178.461 59.2852C178.46 59.2852 178.458 59.2852 178.457 59.2852C178.455 59.2852 178.454 59.2852 178.453 59.2852C178.451 59.2852 178.45 59.2852 178.449 59.2852C178.447 59.2852 178.446 59.2852 178.445 59.2852C178.443 59.2852 178.442 59.2852 178.44 59.2852C178.439 59.2852 178.438 59.2852 178.436 59.2852C178.435 59.2852 178.434 59.2852 178.432 59.2852C178.431 59.2852 178.43 59.2852 178.428 59.2852C178.427 59.2852 178.426 59.2852 178.424 59.2852C178.423 59.2852 178.422 59.2852 178.42 59.2852C178.419 59.2852 178.417 59.2852 178.416 59.2852C178.415 59.2852 178.413 59.2852 178.412 59.2852C178.411 59.2852 178.409 59.2852 178.408 59.2852C178.407 59.2852 178.405 59.2852 178.404 59.2852C178.403 59.2852 178.401 59.2852 178.4 59.2852C178.399 59.2852 178.397 59.2852 178.396 59.2852C178.394 59.2852 178.393 59.2852 178.392 59.2852C178.39 59.2852 178.389 59.2852 178.388 59.2852C178.386 59.2852 178.385 59.2852 178.384 59.2852C178.382 59.2852 178.381 59.2852 178.38 59.2852C178.378 59.2852 178.377 59.2852 178.376 59.2852C178.374 59.2852 178.373 59.2852 178.372 59.2852C178.37 59.2852 178.369 59.2852 178.368 59.2852C178.366 59.2852 178.365 59.2852 178.363 59.2852C178.362 59.2852 178.361 59.2852 178.359 59.2852C178.358 59.2852 178.357 59.2852 178.355 59.2852C178.354 59.2852 178.353 59.2852 178.351 59.2852C178.35 59.2852 178.349 59.2852 178.347 59.2852C178.346 59.2852 178.345 59.2852 178.343 59.2852C178.342 59.2852 178.341 59.2852 178.339 59.2852C178.338 59.2852 178.337 59.2852 178.335 59.2852C178.334 59.2852 178.333 59.2852 178.331 59.2852C178.33 59.2852 178.329 59.2852 178.327 59.2852C178.326 59.2852 178.325 59.2852 178.323 59.2852C178.322 59.2852 178.321 59.2852 178.319 59.2852C178.318 59.2852 178.317 59.2852 178.315 59.2852C178.314 59.2852 178.313 59.2852 178.311 59.2852C178.31 59.2852 178.309 59.2852 178.307 59.2852C178.306 59.2852 178.305 59.2852 178.303 59.2852C178.302 59.2852 178.301 59.2852 178.299 59.2852C178.298 59.2852 178.297 59.2852 178.295 59.2852C178.294 59.2852 178.293 59.2852 178.291 59.2852C178.29 59.2852 178.289 59.2852 178.287 59.2852C178.286 59.2852 178.285 59.2852 178.283 59.2852C178.282 59.2852 178.281 59.2852 178.279 59.2852C178.278 59.2852 178.277 59.2852 178.275 59.2852C178.274 59.2852 178.273 59.2852 178.271 59.2852C178.27 59.2852 178.269 59.2852 178.267 59.2852C178.266 59.2852 178.265 59.2852 178.264 59.2852C178.262 59.2852 178.261 59.2852 178.26 59.2852C178.258 59.2852 178.257 59.2852 178.256 59.2852C178.254 59.2852 178.253 59.2852 178.252 59.2852C178.25 59.2852 178.249 59.2852 178.248 59.2852C178.246 59.2852 178.245 59.2852 178.244 59.2852C178.242 59.2852 178.241 59.2852 178.24 59.2852C178.238 59.2852 178.237 59.2852 178.236 59.2852C178.234 59.2852 178.233 59.2852 178.232 59.2852C178.231 59.2852 178.229 59.2852 178.228 59.2852C178.227 59.2852 178.225 59.2852 178.224 59.2852C178.223 59.2852 178.221 59.2852 178.22 59.2852C178.219 59.2852 178.217 59.2852 178.216 59.2852C178.215 59.2852 178.213 59.2852 178.212 59.2852C178.211 59.2852 178.209 59.2852 178.208 59.2852C178.207 59.2852 178.206 59.2852 178.204 59.2852C178.203 59.2852 178.202 59.2852 178.2 59.2852C178.199 59.2852 178.198 59.2852 178.196 59.2852C178.195 59.2852 178.194 59.2852 178.192 59.2852C178.191 59.2852 178.19 59.2852 178.189 59.2852C178.187 59.2852 178.186 59.2852 178.185 59.2852C178.183 59.2852 178.182 59.2852 178.181 59.2852C178.179 59.2852 178.178 59.2852 178.177 59.2852C178.175 59.2852 178.174 59.2852 178.173 59.2852C178.172 59.2852 178.17 59.2852 178.169 59.2852C178.168 59.2852 178.166 59.2852 178.165 59.2852C178.164 59.2852 178.162 59.2852 178.161 59.2852C178.16 59.2852 178.159 59.2852 178.157 59.2852C178.156 59.2852 178.155 59.2852 178.153 59.2852C178.152 59.2852 178.151 59.2852 178.149 59.2852C178.148 59.2852 178.147 59.2852 178.146 59.2852C178.144 59.2852 178.143 59.2852 178.142 59.2852C178.14 59.2852 178.139 59.2852 178.138 59.2852C178.136 59.2852 178.135 59.2852 178.134 59.2852C178.133 59.2852 178.131 59.2852 178.13 59.2852C178.129 59.2852 178.127 59.2852 178.126 59.2852C178.125 59.2852 178.123 59.2852 178.122 59.2852C178.121 59.2852 178.12 59.2852 178.118 59.2852C178.117 59.2852 178.116 59.2852 178.114 59.2852C178.113 59.2852 178.112 59.2852 178.111 59.2852C178.109 59.2852 178.108 59.2852 178.107 59.2852C178.105 59.2852 178.104 59.2852 178.103 59.2852C178.102 59.2852 178.1 59.2852 178.099 59.2852C178.098 59.2852 178.096 59.2852 178.095 59.2852C178.094 59.2852 178.092 59.2852 178.091 59.2852C178.09 59.2852 178.089 59.2852 178.087 59.2852C178.086 59.2852 178.085 59.2852 178.083 59.2852C178.082 59.2852 178.081 59.2852 178.08 59.2852C178.078 59.2852 178.077 59.2852 178.076 59.2852C178.074 59.2852 178.073 59.2852 178.072 59.2852C178.071 59.2852 178.069 59.2852 178.068 59.2852C178.067 59.2852 178.065 59.2852 178.064 59.2852C178.063 59.2852 178.062 59.2852 178.06 59.2852C178.059 59.2852 178.058 59.2852 178.057 59.2852C178.055 59.2852 178.054 59.2852 178.053 59.2852C178.051 59.2852 178.05 59.2852 178.049 59.2852C178.048 59.2852 178.046 59.2852 178.045 59.2852C178.044 59.2852 178.042 59.2852 178.041 59.2852C178.04 59.2852 178.039 59.2852 178.037 59.2852C178.036 59.2852 178.035 59.2852 178.034 59.2852C178.032 59.2852 178.031 59.2852 178.03 59.2852C178.028 59.2852 178.027 59.2852 178.026 59.2852C178.025 59.2852 178.023 59.2852 178.022 59.2852C178.021 59.2852 178.02 59.2852 178.018 59.2852C178.017 59.2852 178.016 59.2852 178.014 59.2852C178.013 59.2852 178.012 59.2852 178.011 59.2852C178.009 59.2852 178.008 59.2852 178.007 59.2852C178.006 59.2852 178.004 59.2852 178.003 59.2852C178.002 59.2852 178 59.2852 177.999 59.2852C177.998 59.2852 177.997 59.2852 177.995 59.2852C177.994 59.2852 177.993 59.2852 177.992 59.2852C177.99 59.2852 177.989 59.2852 177.988 59.2852C177.987 59.2852 177.985 59.2852 177.984 59.2852C177.983 59.2852 177.981 59.2852 177.98 59.2852C177.979 59.2852 177.978 59.2852 177.976 59.2852C177.975 59.2852 177.974 59.2852 177.973 59.2852C177.971 59.2852 177.97 59.2852 177.969 59.2852C177.968 59.2852 177.966 59.2852 177.965 59.2852C177.964 59.2852 177.962 59.2852 177.961 59.2852C177.96 59.2852 177.959 59.2852 177.957 59.2852C177.956 59.2852 177.955 59.2852 177.954 59.2852C177.952 59.2852 177.951 59.2852 177.95 59.2852C177.949 59.2852 177.947 59.2852 177.946 59.2852C177.945 59.2852 177.944 59.2852 177.942 59.2852C177.941 59.2852 177.94 59.2852 177.939 59.2852C177.937 59.2852 177.936 59.2852 177.935 59.2852C177.934 59.2852 177.932 59.2852 177.931 59.2852C177.93 59.2852 177.929 59.2852 177.927 59.2852C177.926 59.2852 177.925 59.2852 177.924 59.2852C177.922 59.2852 177.921 59.2852 177.92 59.2852C177.919 59.2852 177.917 59.2852 177.916 59.2852C177.915 59.2852 177.914 59.2852 177.912 59.2852C177.911 59.2852 177.91 59.2852 177.909 59.2852C177.907 59.2852 177.906 59.2852 177.905 59.2852C177.904 59.2852 177.902 59.2852 177.901 59.2852C177.9 59.2852 177.899 59.2852 177.897 59.2852C177.896 59.2852 177.895 59.2852 177.894 59.2852C177.892 59.2852 177.891 59.2852 177.89 59.2852C177.889 59.2852 177.887 59.2852 177.886 59.2852C177.885 59.2852 177.884 59.2852 177.882 59.2852C177.881 59.2852 177.88 59.2852 177.879 59.2852C177.877 59.2852 177.876 59.2852 177.875 59.2852C177.874 59.2852 177.872 59.2852 177.871 59.2852C177.87 59.2852 177.869 59.2852 177.867 59.2852C177.866 59.2852 177.865 59.2852 177.864 59.2852C177.863 59.2852 177.861 59.2852 177.86 59.2852C177.859 59.2852 177.858 59.2852 177.856 59.2852C177.855 59.2852 177.854 59.2852 177.853 59.2852C177.851 59.2852 177.85 59.2852 177.849 59.2852C177.848 59.2852 177.846 59.2852 177.845 59.2852C177.844 59.2852 177.843 59.2852 177.841 59.2852C177.84 59.2852 177.839 59.2852 177.838 59.2852C177.837 59.2852 177.835 59.2852 177.834 59.2852C177.833 59.2852 177.832 59.2852 177.83 59.2852C177.829 59.2852 177.828 59.2852 177.827 59.2852C177.825 59.2852 177.824 59.2852 177.823 59.2852C177.822 59.2852 177.821 59.2852 177.819 59.2852C177.818 59.2852 177.817 59.2852 177.816 59.2852C177.814 59.2852 177.813 59.2852 177.812 59.2852C177.811 59.2852 177.809 59.2852 177.808 59.2852C177.807 59.2852 177.806 59.2852 177.805 59.2852C177.803 59.2852 177.802 59.2852 177.801 59.2852C177.8 59.2852 177.798 59.2852 177.797 59.2852C177.796 59.2852 177.795 59.2852 177.794 59.2852C177.792 59.2852 177.791 59.2852 177.79 59.2852C177.789 59.2852 177.787 59.2852 177.786 59.2852C177.785 59.2852 177.784 59.2852 177.783 59.2852C177.781 59.2852 177.78 59.2852 177.779 59.2852C177.778 59.2852 177.776 59.2852 177.775 59.2852C177.774 59.2852 177.773 59.2852 177.772 59.2852C177.77 59.2852 177.769 59.2852 177.768 59.2852C177.767 59.2852 177.765 59.2852 177.764 59.2852C177.763 59.2852 177.762 59.2852 177.761 59.2852C177.759 59.2852 177.758 59.2852 177.757 59.2852C177.756 59.2852 177.754 59.2852 177.753 59.2852C177.752 59.2852 177.751 59.2852 177.75 59.2852C177.748 59.2852 177.747 59.2852 177.746 59.2852C177.745 59.2852 177.744 59.2852 177.742 59.2852C177.741 59.2852 177.74 59.2852 177.739 59.2852C177.738 59.2852 177.736 59.2852 177.735 59.2852C177.734 59.2852 177.733 59.2852 177.731 59.2852C177.73 59.2852 177.729 59.2852 177.728 59.2852C177.727 59.2852 177.725 59.2852 177.724 59.2852C177.723 59.2852 177.722 59.2852 177.721 59.2852C177.719 59.2852 177.718 59.2852 177.717 59.2852C177.716 59.2852 177.715 59.2852 177.713 59.2852C177.712 59.2852 177.711 59.2852 177.71 59.2852C177.708 59.2852 177.707 59.2852 177.706 59.2852C177.705 59.2852 177.704 59.2852 177.702 59.2852C177.701 59.2852 177.7 59.2852 177.699 59.2852C177.698 59.2852 177.696 59.2852 177.695 59.2852C177.694 59.2852 177.693 59.2852 177.692 59.2852C177.69 59.2852 177.689 59.2852 177.688 59.2852C177.687 59.2852 177.686 59.2852 177.684 59.2852C177.683 59.2852 177.682 59.2852 177.681 59.2852C177.68 59.2852 177.678 59.2852 177.677 59.2852C177.676 59.2852 177.675 59.2852 177.674 59.2852C177.672 59.2852 177.671 59.2852 177.67 59.2852C177.669 59.2852 177.668 59.2852 177.666 59.2852C177.665 59.2852 177.664 59.2852 177.663 59.2852C177.662 59.2852 177.66 59.2852 177.659 59.2852C177.658 59.2852 177.657 59.2852 177.656 59.2852C177.655 59.2852 177.653 59.2852 177.652 59.2852C177.651 59.2852 177.65 59.2852 177.649 59.2852C177.647 59.2852 177.646 59.2852 177.645 59.2852C177.644 59.2852 177.643 59.2852 177.641 59.2852C177.64 59.2852 177.639 59.2852 177.638 59.2852C177.637 59.2852 177.635 59.2852 177.634 59.2852C177.633 59.2852 177.632 59.2852 177.631 59.2852C177.63 59.2852 177.628 59.2852 177.627 59.2852C177.626 59.2852 177.625 59.2852 177.624 59.2852C177.622 59.2852 177.621 59.2852 177.62 59.2852C177.619 59.2852 177.618 59.2852 177.616 59.2852C177.615 59.2852 177.614 59.2852 177.613 59.2852C177.612 59.2852 177.611 59.2852 177.609 59.2852C177.608 59.2852 177.607 59.2852 177.606 59.2852C177.605 59.2852 177.603 59.2852 177.602 59.2852C177.601 59.2852 177.6 59.2852 177.599 59.2852C177.598 59.2852 177.596 59.2852 177.595 59.2852C177.594 59.2852 177.593 59.2852 177.592 59.2852C177.59 59.2852 177.589 59.2852 177.588 59.2852C177.587 59.2852 177.586 59.2852 177.585 59.2852C177.583 59.2852 177.582 59.2852 177.581 59.2852C177.58 59.2852 177.579 59.2852 177.578 59.2852C177.576 59.2852 177.575 59.2852 177.574 59.2852C177.573 59.2852 177.572 59.2852 177.57 59.2852C177.569 59.2852 177.568 59.2852 177.567 59.2852C177.566 59.2852 177.565 59.2852 177.563 59.2852C177.562 59.2852 177.561 59.2852 177.56 59.2852C177.559 59.2852 177.558 59.2852 177.556 59.2852C177.555 59.2852 177.554 59.2852 177.553 59.2852C177.552 59.2852 177.551 59.2852 177.549 59.2852C177.548 59.2852 177.547 59.2852 177.546 59.2852C177.545 59.2852 177.544 59.2852 177.542 59.2852C177.541 59.2852 177.54 59.2852 177.539 59.2852C177.538 59.2852 177.537 59.2852 177.535 59.2852C177.534 59.2852 177.533 59.2852 177.532 59.2852C177.531 59.2852 177.53 59.2852 177.528 59.2852C177.527 59.2852 177.526 59.2852 177.525 59.2852C177.524 59.2852 177.523 59.2852 177.521 59.2852C177.52 59.2852 177.519 59.2852 177.518 59.2852C177.517 59.2852 177.516 59.2852 177.514 59.2852C177.513 59.2852 177.512 59.2852 177.511 59.2852C177.51 59.2852 177.509 59.2852 177.507 59.2852C177.506 59.2852 177.505 59.2852 177.504 59.2852C177.503 59.2852 177.502 59.2852 177.501 59.2852C177.499 59.2852 177.498 59.2852 177.497 59.2852C177.496 59.2852 177.495 59.2852 177.494 59.2852C177.492 59.2852 177.491 59.2852 177.49 59.2852C177.489 59.2852 177.488 59.2852 177.487 59.2852C177.485 59.2852 177.484 59.2852 177.483 59.2852C177.482 59.2852 177.481 59.2852 177.48 59.2852C177.479 59.2852 177.477 59.2852 177.476 59.2852C177.475 59.2852 177.474 59.2852 177.473 59.2852C177.472 59.2852 177.47 59.2852 177.469 59.2852C177.468 59.2852 177.467 59.2852 177.466 59.2852C177.465 59.2852 177.464 59.2852 177.462 59.2852C177.461 59.2852 177.46 59.2852 177.459 59.2852C177.458 59.2852 177.457 59.2852 177.456 59.2852C177.454 59.2852 177.453 59.2852 177.452 59.2852C177.451 59.2852 177.45 59.2852 177.449 59.2852C177.448 59.2852 177.446 59.2852 177.445 59.2852C177.444 59.2852 177.443 59.2852 177.442 59.2852C177.441 59.2852 177.439 59.2852 177.438 59.2852C177.437 59.2852 177.436 59.2852 177.435 59.2852C177.434 59.2852 177.433 59.2852 177.431 59.2852C177.43 59.2852 177.429 59.2852 177.428 59.2852C177.427 59.2852 177.426 59.2852 177.425 59.2852C177.424 59.2852 177.422 59.2852 177.421 59.2852C177.42 59.2852 177.419 59.2852 177.418 59.2852C177.417 59.2852 177.416 59.2852 177.414 59.2852C177.413 59.2852 177.412 59.2852 177.411 59.2852C177.41 59.2852 177.409 59.2852 177.408 59.2852C177.406 59.2852 177.405 59.2852 177.404 59.2852C177.403 59.2852 177.402 59.2852 177.401 59.2852C177.4 59.2852 177.398 59.2852 177.397 59.2852C177.396 59.2852 177.395 59.2852 177.394 59.2852C177.393 59.2852 177.392 59.2852 177.391 59.2852C177.389 59.2852 177.388 59.2852 177.387 59.2852C177.386 59.2852 177.385 59.2852 177.384 59.2852C177.383 59.2852 177.382 59.2852 177.38 59.2852C177.379 59.2852 177.378 59.2852 177.377 59.2852C177.376 59.2852 177.375 59.2852 177.374 59.2852C177.372 59.2852 177.371 59.2852 177.37 59.2852C177.369 59.2852 177.368 59.2852 177.367 59.2852C177.366 59.2852 177.365 59.2852 177.363 59.2852C177.362 59.2852 177.361 59.2852 177.36 59.2852C177.359 59.2852 177.358 59.2852 177.357 59.2852C177.356 59.2852 177.354 59.2852 177.353 59.2852C177.352 59.2852 177.351 59.2852 177.35 59.2852C177.349 59.2852 177.348 59.2852 177.347 59.2852C177.345 59.2852 177.344 59.2852 177.343 59.2852C177.342 59.2852 177.341 59.2852 177.34 59.2852C177.339 59.2852 177.338 59.2852 177.337 59.2852C177.335 59.2852 177.334 59.2852 177.333 59.2852C177.332 59.2852 177.331 59.2852 177.33 59.2852C177.329 59.2852 177.328 59.2852 177.326 59.2852C177.325 59.2852 177.324 59.2852 177.323 59.2852C177.322 59.2852 177.321 59.2852 177.32 59.2852C177.319 59.2852 177.318 59.2852 177.316 59.2852C177.315 59.2852 177.314 59.2852 177.313 59.2852C177.312 59.2852 177.311 59.2852 177.31 59.2852C177.309 59.2852 177.307 59.2852 177.306 59.2852C177.305 59.2852 177.304 59.2852 177.303 59.2852C177.302 59.2852 177.301 59.2852 177.3 59.2852C177.299 59.2852 177.297 59.2852 177.296 59.2852C177.295 59.2852 177.294 59.2852 177.293 59.2852C177.292 59.2852 177.291 59.2852 177.29 59.2852C177.289 59.2852 177.288 59.2852 177.286 59.2852C177.285 59.2852 177.284 59.2852 177.283 59.2852C177.282 59.2852 177.281 59.2852 177.28 59.2852C177.279 59.2852 177.278 59.2852 177.276 59.2852C177.275 59.2852 177.274 59.2852 177.273 59.2852C177.272 59.2852 177.271 59.2852 177.27 59.2852C177.269 59.2852 177.268 59.2852 177.267 59.2852C177.265 59.2852 177.264 59.2852 177.263 59.2852C177.262 59.2852 177.261 59.2852 177.26 59.2852C177.259 59.2852 177.258 59.2852 177.257 59.2852C177.255 59.2852 177.254 59.2852 177.253 59.2852C177.252 59.2852 177.251 59.2852 177.25 59.2852V62.2852ZM179.254 62.2852L176.488 61.1228C175.8 62.7613 175.233 64.171 174.793 65.3451L177.602 66.3984L180.411 67.4518C180.814 66.3758 181.349 65.0434 182.02 63.4475L179.254 62.2852ZM177.602 66.3984L174.8 65.3255C174.368 66.4534 174.019 67.4224 173.762 68.2196L176.617 69.1406L179.472 70.0616C179.684 69.4057 179.991 68.5466 180.403 67.4714L177.602 66.3984ZM176.617 69.1406L173.748 68.264C173.479 69.146 173.265 69.925 173.123 70.5776L176.055 71.2148L178.986 71.8521C179.079 71.4266 179.24 70.8228 179.486 70.0173L176.617 69.1406ZM176.055 71.2148L173.099 70.7008C173.007 71.2299 172.891 71.8781 172.752 72.6469L175.703 73.1836L178.655 73.7203C178.796 72.9422 178.915 72.2779 179.01 71.7289L176.055 71.2148ZM175.703 73.1836L172.747 72.6739C172.639 73.3003 172.483 74.0901 172.278 75.0511L175.211 75.6797L178.144 76.3083C178.36 75.3006 178.533 74.4263 178.66 73.6933L175.703 73.1836ZM175.211 75.6797L172.278 75.0511C172.06 76.0653 171.821 77.2616 171.56 78.6363L174.508 79.1953L177.455 79.7543C177.71 78.4103 177.94 77.2628 178.144 76.3083L175.211 75.6797ZM174.508 79.1953L174.644 76.1984L171.55 76.0578L171.414 79.0547L171.278 82.0516L174.372 82.1922L174.508 79.1953ZM171.414 79.0547L174.38 79.5024C174.574 78.2191 174.713 77.0917 174.791 76.1331L171.801 75.8906L168.811 75.6482C168.748 76.424 168.629 77.4059 168.448 78.6069L171.414 79.0547ZM171.801 75.8906L174.791 76.1267C174.862 75.2367 174.92 74.4995 174.967 73.915L171.977 73.6758L168.986 73.4365C168.939 74.0239 168.88 74.7633 168.81 75.6545L171.801 75.8906ZM171.977 73.6758L174.969 73.8822C175.019 73.1656 175.047 72.5283 175.047 71.9883H172.047H169.047C169.047 72.3389 169.028 72.8266 168.984 73.4694L171.977 73.6758ZM172.047 71.9883H175.047C175.047 71.4029 175.005 70.6083 174.933 69.6545L171.941 69.8789L168.95 70.1033C169.019 71.0245 169.047 71.6362 169.047 71.9883H172.047ZM171.941 69.8789L174.936 69.6974C174.888 68.9084 174.817 67.8532 174.723 66.5363L171.73 66.75L168.738 66.9637C168.832 68.2718 168.901 69.3026 168.947 70.0604L171.941 69.8789ZM171.73 66.75L174.723 66.54C174.628 65.1912 174.499 63.4818 174.334 61.4145L171.344 61.6523L168.353 61.8902C168.517 63.9478 168.645 65.6369 168.738 66.96L171.73 66.75ZM175.211 81.8672L172.68 83.4778C172.556 83.2837 172.509 83.0894 172.5 82.9598L175.492 82.7461L178.485 82.5324C178.428 81.7466 178.194 80.9663 177.742 80.2566L175.211 81.8672ZM175.492 82.7461L172.527 83.2023C172.501 83.0355 172.525 82.9141 172.537 82.8711L175.422 83.6953L178.306 84.5195C178.506 83.8202 178.577 83.066 178.457 82.2899L175.492 82.7461ZM175.422 83.6953L172.499 83.0207C172.551 82.7952 172.645 82.672 172.66 82.6537L174.965 84.5742L177.27 86.4948C177.754 85.914 178.152 85.2048 178.345 84.3699L175.422 83.6953ZM174.965 84.5742L172.565 82.7742C172.634 82.6824 172.707 82.6126 172.772 82.5637C172.834 82.5161 172.877 82.4965 172.883 82.4937L174.086 85.2422L175.288 87.9907C176.059 87.6535 176.796 87.1333 177.365 86.3742L174.965 84.5742ZM174.086 85.2422L172.813 82.5258C172.649 82.6023 172.584 82.6083 172.605 82.6053C172.618 82.6035 172.652 82.5999 172.705 82.6029C172.758 82.6058 172.822 82.6152 172.891 82.6345L172.082 85.5234L171.273 88.4123C172.767 88.8305 174.194 88.5046 175.359 87.9586L174.086 85.2422ZM172.082 85.5234L172.996 82.6662C172.947 82.6504 172.975 82.6522 173.042 82.6997C173.115 82.7511 173.203 82.8334 173.277 82.9453L170.781 84.6094L168.285 86.2735C169.019 87.3739 170.077 88.0317 171.168 88.3807L172.082 85.5234ZM170.781 84.6094L173.239 82.889C173.375 83.0831 173.468 83.3317 173.49 83.5868L170.5 83.8359L167.51 84.0851C167.578 84.9027 167.86 85.6669 168.324 86.3298L170.781 84.6094ZM170.5 83.8359H173.5C173.5 83.8772 173.496 83.925 173.486 83.976C173.475 84.0271 173.461 84.0728 173.445 84.1109L170.676 82.957L167.907 81.8032C167.637 82.45 167.5 83.1352 167.5 83.8359H170.5ZM170.676 82.957L173.476 84.034C173.452 84.0951 173.425 84.1449 173.4 84.1817C173.376 84.2177 173.36 84.2347 173.36 84.2346L171.238 82.1133L169.117 79.992C168.597 80.5118 168.16 81.1401 167.876 81.8801L170.676 82.957ZM171.238 82.1133L173.36 84.2346C173.344 84.2506 173.33 84.2628 173.319 84.2713C173.308 84.2798 173.302 84.2843 173.3 84.2853C173.297 84.2871 173.316 84.2747 173.365 84.2545L172.223 81.4805L171.08 78.7064C170.381 78.9943 169.701 79.408 169.117 79.992L171.238 82.1133ZM172.223 81.4805L173.394 84.2422C173.512 84.1921 173.608 84.1575 173.682 84.134C173.757 84.1103 173.803 84.1002 173.824 84.0963C173.873 84.0871 173.767 84.1154 173.56 84.0759L174.121 81.1289L174.682 78.1819C173.332 77.9247 172.039 78.2994 171.051 78.7187L172.223 81.4805ZM174.121 81.1289L173.584 84.0805C173.51 84.067 173.322 84.0193 173.098 83.8675C172.861 83.7075 172.677 83.4931 172.56 83.2709L175.211 81.8672L177.862 80.4635C177.148 79.1143 175.913 78.4055 174.658 78.1773L174.121 81.1289Z" fill="#564D53" mask="url(#path-2-outside-1_8_100)"/>
</svg>
