<svg width="166" height="91" viewBox="0 0 166 91" fill="none" xmlns="http://www.w3.org/2000/svg">
<path d="M36.2724 17.3128C38.5382 17.1544 40.5957 18.1794 41.8698 19.8436L44.3665 21.5711L44.4221 21.6103L44.474 21.6536L54.2601 29.8229L54.7199 30.2244C56.9732 32.2792 58.4964 35.0207 59.0456 38.0325L59.0636 38.135L59.0688 38.2384L59.6691 52.5057C59.7889 55.3528 57.6224 57.7805 54.7792 57.9793C52.22 58.1582 49.9196 56.4663 49.3066 53.9998L49.2526 53.7589L46.8461 41.7157C46.4116 39.5411 45.4663 37.5031 44.0916 35.7694L43.8111 35.4258L43.1867 34.6873L43.1496 60.3921L43.1499 60.396L43.0959 73.6508C43.0957 73.6914 43.0933 73.7321 43.0917 73.7725L43.1106 74.155C43.2343 78.0976 40.9941 81.6447 37.5937 84.2411C34.0719 86.9301 29.1607 88.7348 23.6997 89.1167C18.2387 89.4986 13.1242 88.3949 9.26246 86.2222C5.4136 84.0568 2.64743 80.7162 2.36104 76.6207C2.07465 72.5252 4.34899 68.8322 7.85902 66.1521C11.3808 63.4631 16.2919 61.6584 21.753 61.2765C25.539 61.0118 29.1584 61.4608 32.3093 62.4855L29.6373 24.2741C29.3879 20.7043 32.0771 17.6062 35.6469 17.3566L36.2724 17.3128Z" fill="#D3A7C6" stroke="#564D53" stroke-width="3"/>
<path d="M108.367 1.5C108.777 1.5 109.178 1.5406 109.565 1.61328C109.616 1.60976 109.666 1.60398 109.717 1.60352L109.99 1.61621L158.113 6.39746L158.358 6.43457C158.46 6.45493 158.559 6.48349 158.655 6.51562C162.004 6.8349 164.569 9.7032 164.499 13.0967L164.482 13.4473L160.904 61.9258L160.9 61.9668C160.904 62.0819 160.908 62.1974 160.908 62.3135C160.908 66.4188 158.388 69.9462 154.707 72.377C151.014 74.8154 145.999 76.2744 140.536 76.2744C135.073 76.2744 130.057 74.8155 126.364 72.377C122.683 69.9462 120.164 66.4187 120.164 62.3135C120.164 58.2084 122.683 54.6816 126.364 52.251C130.057 49.8124 135.073 48.3525 140.536 48.3525C144.321 48.3526 147.891 49.0545 150.955 50.2959V18.4561H114.075L111.737 49.9639L111.736 49.9766L111.244 55.8984V57.248C111.244 57.2609 111.243 57.2742 111.243 57.2871C111.243 57.3011 111.244 57.3151 111.244 57.3291C111.244 61.4344 108.724 64.9618 105.043 67.3926C101.35 69.831 96.3352 71.29 90.8721 71.29C85.4089 71.29 80.3943 69.831 76.7012 67.3926C73.0198 64.9618 70.5 61.4344 70.5 57.3291C70.5001 53.2239 73.0199 49.6973 76.7012 47.2666C80.3944 44.8281 85.4088 43.3682 90.8721 43.3682C94.6572 43.3682 98.2269 44.0692 101.291 45.3105V7.98438C101.291 4.4083 104.181 1.50003 107.758 1.5H108.367Z" fill="#D3A7C6" stroke="#564D53" stroke-width="3"/>
</svg>
