<svg width="166" height="91" viewBox="0 0 166 91" fill="none" xmlns="http://www.w3.org/2000/svg">
<path d="M129.728 17.3128C127.462 17.1544 125.404 18.1794 124.13 19.8436L121.634 21.5711L121.578 21.6103L121.526 21.6536L111.74 29.8229L111.28 30.2244C109.027 32.2792 107.504 35.0207 106.954 38.0325L106.936 38.135L106.931 38.2384L106.331 52.5057C106.211 55.3528 108.378 57.7805 111.221 57.9793C113.78 58.1582 116.08 56.4663 116.693 53.9998L116.747 53.7589L119.154 41.7157C119.588 39.5411 120.534 37.5031 121.908 35.7694L122.189 35.4258L122.813 34.6873L122.85 60.3921L122.85 60.396L122.904 73.6508C122.904 73.6914 122.907 73.7321 122.908 73.7725L122.889 74.155C122.766 78.0976 125.006 81.6447 128.406 84.2411C131.928 86.9301 136.839 88.7348 142.3 89.1167C147.761 89.4986 152.876 88.3949 156.738 86.2222C160.586 84.0568 163.353 80.7162 163.639 76.6207C163.925 72.5252 161.651 68.8322 158.141 66.1521C154.619 63.4631 149.708 61.6584 144.247 61.2765C140.461 61.0118 136.842 61.4608 133.691 62.4855L136.363 24.2741C136.612 20.7043 133.923 17.6062 130.353 17.3566L129.728 17.3128Z" fill="#D3A7C6" stroke="#564D53" stroke-width="3"/>
<path d="M57.6328 1.5C57.2228 1.5 56.8224 1.5406 56.4346 1.61328C56.3844 1.60976 56.3341 1.60398 56.2832 1.60352L56.0098 1.61621L7.88672 6.39746L7.6416 6.43457C7.53982 6.45493 7.44124 6.48349 7.34473 6.51562C3.99636 6.8349 1.43083 9.7032 1.50098 13.0967L1.51758 13.4473L5.0957 61.9258L5.09961 61.9668C5.09561 62.0819 5.0918 62.1974 5.0918 62.3135C5.0918 66.4188 7.61159 69.9462 11.293 72.377C14.9861 74.8154 20.0007 76.2744 25.4639 76.2744C30.9272 76.2744 35.9425 74.8155 39.6357 72.377C43.317 69.9462 45.8359 66.4187 45.8359 62.3135C45.8358 58.2084 43.3168 54.6816 39.6357 52.251C35.9425 49.8124 30.9272 48.3525 25.4639 48.3525C21.6786 48.3526 18.1091 49.0545 15.0449 50.2959V18.4561H51.9248L54.2627 49.9639L54.2637 49.9766L54.7559 55.8984V57.248C54.7559 57.2609 54.7567 57.2742 54.7568 57.2871C54.7568 57.3011 54.7559 57.3151 54.7559 57.3291C54.7559 61.4344 57.2757 64.9618 60.957 67.3926C64.6502 69.831 69.6648 71.29 75.1279 71.29C80.5911 71.29 85.6057 69.831 89.2988 67.3926C92.9802 64.9618 95.5 61.4344 95.5 57.3291C95.4999 53.2239 92.9801 49.6973 89.2988 47.2666C85.6056 44.8281 80.5912 43.3682 75.1279 43.3682C71.3428 43.3682 67.7731 44.0692 64.709 45.3105V7.98438C64.709 4.4083 61.8185 1.50003 58.2422 1.5H57.6328Z" fill="#D3A7C6" stroke="#564D53" stroke-width="3"/>
</svg>
