<svg width="157" height="141" viewBox="0 0 157 141" fill="none" xmlns="http://www.w3.org/2000/svg">
<path d="M93.2871 7.85431C95.1536 7.6911 96.867 8.497 97.9536 9.8409L99.8847 11.1287L99.9409 11.1659L99.9936 11.2083L107.76 17.4645L108.137 17.7815C109.98 19.405 111.245 21.5923 111.73 24.0105L111.75 24.1127L111.756 24.2161L112.421 35.3666C112.564 37.7679 110.771 39.8495 108.374 40.0594C106.216 40.2482 104.248 38.8539 103.694 36.781L103.645 36.5784L101.599 27.1908C101.226 25.4815 100.436 23.8928 99.301 22.5639L99.6092 41.7742L99.6086 41.7781L99.7481 52.1463C99.7486 52.1779 99.7463 52.21 99.7457 52.2416C100.028 55.576 98.221 58.5834 95.4645 60.7653C92.69 62.9614 88.8109 64.4598 84.4906 64.8378C80.17 65.2158 76.089 64.4139 72.9752 62.7329C69.8744 61.0589 67.5686 58.4025 67.2759 55.0588C66.9833 51.7149 68.7928 48.6977 71.5559 46.5106C74.3305 44.3145 78.2103 42.816 82.5308 42.438C85.3447 42.1919 88.0558 42.4494 90.4653 43.1212L87.8951 13.7441C87.6355 10.776 89.8291 8.15698 92.7977 7.89712L93.2871 7.85431Z" fill="#564D53" stroke="#D3A7C6" stroke-width="3"/>
<path d="M24.3998 137.157C27.1044 137.36 30.4116 137.151 33.0605 136.498L33.0593 136.497C39.81 134.838 44.3942 129.88 45.3623 123.589L45.4124 123.239C45.6383 121.495 45.5315 119.757 45.202 118.097L45.203 118.097C44.5635 114.462 43.8974 110.826 43.2214 107.191C51.1836 104.19 57.4584 98.1801 58.5365 89.6693L58.5859 89.2411L58.5869 89.23L58.6329 88.6864C58.8284 85.9656 58.5032 83.1602 57.4346 80.5691L57.4338 80.5702C54.5969 73.5508 47.2215 68.3061 38.8845 67.9957L38.8837 67.9968C37.8724 67.952 36.8702 67.9793 35.8795 68.0665C35.2903 64.7597 34.719 61.4531 34.1718 58.1459C37.2382 54.831 40.1491 51.261 42.5758 47.5391L42.8818 47.0696C46.0016 42.2073 47.975 36.8713 48.9047 31.4228L48.9066 31.4224C50.0722 24.9442 49.1141 17.8973 44.9706 12.272L44.9714 12.2709C44.4871 11.5978 43.9499 10.9494 43.4324 10.3478L43.4316 10.3489C43.3792 10.2874 43.3288 10.2317 43.2981 10.1989L43.2958 10.1973C41.1572 7.92613 37.3748 8.12402 35.2875 10.3441L35.285 10.3465C35.1918 10.446 35.1149 10.5284 35.0613 10.5853C35.0345 10.6137 35.0136 10.6358 34.9995 10.6507C34.9925 10.6581 34.9871 10.6637 34.9836 10.6674C34.9819 10.6692 34.9801 10.6702 34.9793 10.6711L34.9785 10.6723L34.9502 10.703C30.084 16.1214 26.3798 22.5424 24.9782 29.4688L24.9747 29.4823C24.256 33.2081 24.5431 36.8998 25.0956 40.353L25.1048 40.4049C25.7079 43.4734 26.3078 46.5402 26.9041 49.6083C25.0796 51.0217 22.9091 52.2674 20.6257 53.6327C18.1172 55.1326 15.4831 56.7733 13.4459 58.8602L13.446 58.8612C5.16004 67.0701 0.0448292 78.4425 3.24282 90.0938C5.57408 98.9887 12.6611 106.632 22.6842 108.869C27.4646 109.96 32.4035 109.786 37.1454 108.865C37.4403 110.408 37.7798 111.957 38.0721 113.418C38.4624 115.369 38.7776 117.21 38.8722 118.928C38.6899 121.096 38.4142 122.922 37.7918 124.678C36.499 127.664 34.3927 129.409 31.155 130.73C28.3153 131.388 25.9904 131.284 23.9223 130.468C24.7662 130.121 25.5029 129.656 26.1023 129.064C27.3236 127.857 27.8294 126.262 27.636 124.535C27.4215 122.62 26.1675 121.158 24.5781 120.279C23.0896 119.456 21.2237 119.082 19.2825 119.237L18.8925 119.275C15.2132 119.7 11.8868 122.145 11.5713 125.916L11.5502 126.286C11.4421 129.824 13.56 132.498 16.0941 134.245C18.6212 135.986 21.7869 136.981 24.3997 137.156L24.3998 137.157ZM32.1475 45.1129C31.7997 42.8802 31.4646 40.6813 31.3697 38.4693C31.2466 35.6014 31.5423 32.8836 32.7051 30.3692L32.9501 29.8689L32.9545 29.8602L32.9587 29.8505C34.4539 26.8458 36.7443 24.1126 39.6237 22.0799C39.6987 22.1547 39.7729 22.2307 39.8436 22.3089L39.8458 22.3105L40.1301 22.6461C41.4983 24.3634 42.0214 26.7059 41.7165 28.9716L41.7142 28.9869L41.7129 29.002C41.175 33.728 38.8669 38.4094 35.3053 42.079L35.3004 42.0848L35.2953 42.0897C34.6688 42.7481 34.0103 43.3915 33.3293 44.0378L32.5353 44.7648C32.4068 44.8814 32.2768 44.9967 32.1475 45.1129ZM34.6292 102.929L34.6165 102.931L34.6031 102.933C28.7004 103.864 23.6311 102.76 19.8959 100.232C16.2889 97.7911 13.8144 93.9495 13.0359 89.0354L12.9653 88.556L12.9644 88.5452L12.907 88.0903C12.4005 83.3999 14.3732 79.1597 17.576 75.068C20.9127 70.8052 25.3311 67 29.2675 63.1358L29.4462 62.9625C29.8263 65.0131 30.1999 67.0642 30.567 69.1162C30.2031 69.227 29.8403 69.3431 29.4808 69.4684L29.4809 69.4694C19.9794 72.7318 14.2391 81.3933 16.6066 90.5417L16.7252 90.9779C17.6613 94.4589 20.2465 97.8263 24.0917 99.2264C24.779 99.4894 25.6952 99.8765 26.5677 100.165C27.4773 100.466 28.5144 100.725 29.5938 100.725L30.2086 100.725C30.3143 100.725 30.4105 100.726 30.4804 100.726C30.5153 100.726 30.5439 100.725 30.5635 100.725C30.5733 100.725 30.5812 100.725 30.5863 100.725C30.5888 100.725 30.591 100.725 30.5923 100.725L30.5934 100.726L30.5944 100.725C31.2162 100.725 31.7121 100.434 32.0307 100.059C32.307 99.7333 32.4283 99.3774 32.4864 99.1563C32.6033 98.7109 32.5939 98.2766 32.5939 98.2251L32.594 98.0009L32.5283 97.7854C32.5278 97.7839 32.519 97.7539 32.5082 97.7225C32.4964 97.6879 32.4718 97.6219 32.434 97.5432C32.3405 97.3489 32.2038 97.1654 32.0193 97.0135C31.8752 96.8949 31.7389 96.8274 31.6983 96.8073C31.6507 96.7836 31.5988 96.7605 31.5827 96.7533C31.5444 96.7361 31.4801 96.7078 31.374 96.6552L30.9148 96.4129C30.6139 96.2466 30.0939 96.0251 29.7346 95.8664C29.5289 95.7756 29.3422 95.6913 29.1867 95.6159C29.1097 95.5786 29.0478 95.5475 29.0005 95.5218C28.9502 95.4945 28.9335 95.4826 28.9387 95.4861L28.9376 95.4853C27.8226 94.7271 27.2121 94.0589 26.8043 93.3408C26.3798 92.5933 26.1119 91.685 25.8411 90.3136L25.8381 90.2963L25.8342 90.2801C25.3016 87.8726 25.738 85.6496 26.9332 83.8649C28.0542 82.191 29.9035 80.816 32.4481 80.0713C32.7376 81.8365 33.0227 83.6024 33.2959 85.3688L33.2974 85.3774C34.203 90.9993 35.1416 96.8389 36.0988 102.665C35.6234 102.77 35.1334 102.859 34.6292 102.929ZM41.8889 100.106C40.5852 93.2299 39.2637 86.3681 37.9742 79.4905C38.5849 79.5605 39.1774 79.6809 39.7431 79.8609L39.7526 79.8642L40.2569 80.036C42.7461 80.9612 44.7682 82.8669 45.7541 85.0561C45.9354 85.4678 46.0619 85.8496 46.1459 86.2435C46.4941 87.9934 46.6272 89.7559 46.4826 91.4933L46.4816 91.5044C46.2053 95.1398 44.5747 98.0851 41.8889 100.106Z" fill="#564D53" stroke="#D3A7C6" stroke-width="3"/>
<path d="M116.261 73.2953C116.567 73.4068 116.856 73.5454 117.128 73.7033C117.158 73.7126 117.19 73.7189 117.22 73.7296L117.449 73.8254L151.46 90.1599L151.658 90.2681C151.727 90.3104 151.794 90.3566 151.857 90.4052C154.357 91.6142 155.538 94.5629 154.524 97.1788L154.412 97.4466L138.898 131.906L138.892 131.918C138.865 132.001 138.838 132.084 138.807 132.167C137.664 135.308 134.761 137.267 131.348 138.076C127.921 138.889 123.791 138.608 119.735 137.131C115.679 135.655 112.335 133.216 110.232 130.39C108.138 127.577 107.173 124.21 108.316 121.069C109.459 117.929 112.362 115.971 115.775 115.162C119.201 114.349 123.331 114.63 127.387 116.106C130.026 117.067 132.361 118.436 134.251 120.052L142.437 97.5613L115.995 87.9369L106.031 110.048L106.025 110.06L104.101 114.23L103.743 115.215C103.741 115.221 103.737 115.227 103.735 115.233C103.73 115.246 103.726 115.261 103.721 115.274C102.578 118.415 99.6747 120.373 96.2624 121.182C92.8354 121.995 88.7054 121.714 84.6489 120.237C80.5923 118.761 77.2479 116.322 75.145 113.496C73.0511 110.683 72.086 107.316 73.2288 104.176C74.3718 101.036 77.2752 99.0767 80.6878 98.2674C84.1148 97.4548 88.2447 97.736 92.3013 99.2125C94.9397 100.173 97.2752 101.542 99.1654 103.158L108.925 76.3451C109.94 73.5557 113.024 72.1174 115.814 73.1326L116.261 73.2953Z" fill="#564D53" stroke="#D3A7C6" stroke-width="3"/>
</svg>
